<?xml version="1.0" encoding="UTF-8"?>
<svg version="1.1" xmlns="http://www.w3.org/2000/svg" width="196" height="189">
<path d="M0 0 C1.20527344 -0.01933594 2.41054687 -0.03867187 3.65234375 -0.05859375 C7.7893006 0.54323159 9.21786525 1.39070847 12.0625 4.4375 C16.41685926 10.76632785 16.60014295 16.66192027 16.453125 24.15625 C16.44746521 25.25473267 16.44180542 26.35321533 16.43597412 27.48498535 C16.41370753 30.9696132 16.36352752 34.45318656 16.3125 37.9375 C16.29242252 40.30988091 16.27417394 42.68227805 16.2578125 45.0546875 C16.21387465 50.8493139 16.14705981 56.64333159 16.0625 62.4375 C17.01801758 62.48865967 17.97353516 62.53981934 18.95800781 62.5925293 C20.21452148 62.66898682 21.47103516 62.74544434 22.765625 62.82421875 C24.00989258 62.89600342 25.25416016 62.96778809 26.53613281 63.04174805 C31.3154203 63.5781109 34.08556414 64.76071625 38.0625 67.4375 C39.265625 69.57421875 39.265625 69.57421875 40.0625 71.4375 C41.0525 71.1075 42.0425 70.7775 43.0625 70.4375 C49.53707538 69.89795205 52.68221899 70.81404544 58.0625 74.4375 C59.0625 75.4375 59.0625 75.4375 59.125 78.5 C59.104375 79.469375 59.08375 80.43875 59.0625 81.4375 C56.75 82.0625 56.75 82.0625 54.0625 82.4375 C52.5775 81.4475 52.5775 81.4475 51.0625 80.4375 C48.73862053 80.04362212 46.40456251 79.70263915 44.0625 79.4375 C44.1553125 81.231875 44.1553125 81.231875 44.25 83.0625 C44.22785453 87.24799449 43.42482786 89.89400821 41.0625 93.4375 C39.14990642 95.28196048 37.19042763 96.82973246 35.0625 98.4375 C35.743125 98.994375 36.42375 99.55125 37.125 100.125 C38.0840625 101.2696875 38.0840625 101.2696875 39.0625 102.4375 C38.8125 105.1875 38.8125 105.1875 38.0625 107.4375 C34.875 108.25 34.875 108.25 31.0625 108.4375 C27.03483526 105.46053041 25.82497753 103.26652434 25.0625 98.4375 C24.52625 97.921875 23.99 97.40625 23.4375 96.875 C22.98375 96.400625 22.53 95.92625 22.0625 95.4375 C22.375 93.25 22.375 93.25 23.0625 91.4375 C26.04101562 91.2421875 26.04101562 91.2421875 29.01953125 91.046875 C31.86972223 90.19672243 32.63250934 89.0097123 34.0625 86.4375 C34.53338545 83.95609095 34.53338545 83.95609095 34.4375 81.375 C34.44523437 80.51777344 34.45296875 79.66054687 34.4609375 78.77734375 C33.98781045 75.99888194 33.26903152 75.13400599 31.0625 73.4375 C27.68589602 72.31196534 24.40241615 72.40368039 20.87890625 72.41796875 C19.9772876 72.42078857 19.07566895 72.4236084 18.14672852 72.42651367 C17.45893311 72.43013916 16.7711377 72.43376465 16.0625 72.4375 C16.04791748 73.5519751 16.03333496 74.6664502 16.01831055 75.81469727 C15.9600792 79.9728916 15.88284886 84.13055841 15.80004883 88.28833008 C15.76691587 90.08349 15.73884813 91.87875117 15.71606445 93.67407227 C15.68230336 96.26362012 15.62997875 98.85224971 15.57421875 101.44140625 C15.56463387 102.63401817 15.56463387 102.63401817 15.55485535 103.85072327 C15.345535 111.89036052 12.68930574 117.6767227 7.0625 123.4375 C2.79330952 126.04644974 -2.07305195 126.10615265 -6.9375 125.4375 C-12.31704263 123.55144521 -15.71629771 120.02527295 -18.9375 115.4375 C-18.9375 114.4475 -18.9375 113.4575 -18.9375 112.4375 C-19.57816406 112.169375 -20.21882813 111.90125 -20.87890625 111.625 C-28.17765226 108.31826559 -33.46524093 104.3100106 -37.14453125 97.05859375 C-38.07422035 93.985582 -37.89985611 91.68751043 -37.625 88.5 C-37.45537917 84.13500738 -37.45537917 84.13500738 -39.453125 80.4296875 C-41.327947 78.85759691 -41.327947 78.85759691 -43.30859375 77.62109375 C-44.9375 76.4375 -44.9375 76.4375 -45.9375 73.4375 C-46.6749201 66.52267548 -45.91167879 62.15038201 -41.9375 56.4375 C-42.4325 55.921875 -42.9275 55.40625 -43.4375 54.875 C-45.51540933 51.49839734 -45.33609053 49.35697356 -44.9375 45.4375 C-43.32525708 40.76199554 -41.39504811 36.99982229 -37.9375 33.4375 C-35.6875 32.625 -35.6875 32.625 -33.9375 32.4375 C-34.2675 31.7775 -34.5975 31.1175 -34.9375 30.4375 C-35.44671186 24.32695765 -35.02602244 21.29952669 -30.9375 16.4375 C-26.39745663 11.89745663 -21.33208017 10.4375 -14.9375 10.4375 C-14.07125 8.7978125 -14.07125 8.7978125 -13.1875 7.125 C-10.03859857 1.16457944 -6.64070869 0.0070872 0 0 Z M-5.25 8 C-7.17693389 9.39627878 -7.17693389 9.39627878 -7.875 12.125 C-7.9681015 17.05937946 -6.31268212 20.767636 -3.1875 24.5625 C-1.9375 26.4375 -1.9375 26.4375 -2.25 29.1875 C-2.476875 29.93 -2.70375 30.6725 -2.9375 31.4375 C-7.74389455 31.4375 -8.56855227 30.72222404 -11.9375 27.4375 C-12.58998952 26.22270244 -13.21429426 24.9924273 -13.8125 23.75 C-15.64823058 20.11093549 -15.64823058 20.11093549 -19.5 19.3125 C-22.78558392 19.18058424 -22.78558392 19.18058424 -24.8125 20.4375 C-26.61782168 23.64696077 -27.06303105 25.73433397 -26.9375 29.4375 C-25.32698343 31.21038473 -23.58843983 32.52701956 -21.6640625 33.94921875 C-19.21054559 36.06412813 -18.60275364 38.33298303 -17.9375 41.4375 C-19.3125 42.9375 -19.3125 42.9375 -20.9375 44.4375 C-21.5975 44.4375 -22.2575 44.4375 -22.9375 44.4375 C-23.370625 43.4784375 -23.370625 43.4784375 -23.8125 42.5 C-24.76573451 40.28543921 -24.76573451 40.28543921 -26.9375 39.4375 C-30.98892119 39.17889865 -32.48087669 39.13308446 -35.9375 41.4375 C-36.59290121 43.55886793 -36.59290121 43.55886793 -36.75 45.9375 C-36.83894531 46.7315625 -36.92789063 47.525625 -37.01953125 48.34375 C-37.16598506 50.66160302 -37.16598506 50.66160302 -34.9375 52.4375 C-33.17555387 52.74392541 -31.40195088 52.98551912 -29.625 53.1875 C-23.37001419 54.26142286 -23.37001419 54.26142286 -20.8125 57 C-18.51946252 61.20390205 -18.05313519 64.70696937 -17.9375 69.4375 C-20.1875 69.3125 -20.1875 69.3125 -22.9375 68.4375 C-25.125 65.5 -25.125 65.5 -26.9375 62.4375 C-27.5975 61.7775 -28.2575 61.1175 -28.9375 60.4375 C-32.46644948 60.52493691 -32.46644948 60.52493691 -35.9375 61.4375 C-38.40693529 65.14165293 -38.40663089 67.05894505 -37.9375 71.4375 C-34.89367342 75.27536829 -29.52774573 75.60380152 -24.9375 76.4375 C-25.25 78.3125 -25.25 78.3125 -25.9375 80.4375 C-27.4225 81.4275 -27.4225 81.4275 -28.9375 82.4375 C-29.95611572 88.54919433 -29.41406032 94.22265952 -25.9375 99.4375 C-23.96799731 101.81958418 -23.96799731 101.81958418 -20.25 101.875 C-15.91328531 101.81214906 -13.81507611 100.15290619 -10.546875 97.484375 C-8.9375 96.4375 -8.9375 96.4375 -6 96.625 C-5.319375 96.893125 -4.63875 97.16125 -3.9375 97.4375 C-3.6075 98.4275 -3.2775 99.4175 -2.9375 100.4375 C-5.08169403 104.5082443 -7.7285725 107.80675522 -11.8125 109.9375 C-12.51375 110.1025 -13.215 110.2675 -13.9375 110.4375 C-13.20843764 113.61776528 -13.20843764 113.61776528 -10.4375 115.1875 C-6.16993767 116.7116294 -2.22996487 117.1381337 2.0625 115.4375 C4.99909341 111.7634363 5.50492186 108.62380765 5.75 104 C5.84861328 102.36224609 5.84861328 102.36224609 5.94921875 100.69140625 C5.98660156 99.61761719 6.02398437 98.54382813 6.0625 97.4375 C6.14951172 95.83841797 6.14951172 95.83841797 6.23828125 94.20703125 C6.32577238 91.15280367 6.32577238 91.15280367 3.5625 88.5625 C0.56293001 86.38869398 -2.1473709 85.71652061 -5.9140625 85.92578125 C-8.97801651 86.70064221 -11.04469786 88.38181357 -13.39453125 90.44140625 C-13.90371094 90.77011719 -14.41289063 91.09882812 -14.9375 91.4375 C-16.4225 90.9425 -16.4225 90.9425 -17.9375 90.4375 C-17.56916144 84.05296499 -17.56916144 84.05296499 -14.5 81.0625 C-9.91042371 78.15203699 -6.3309021 77.73835528 -0.9375 78.4375 C2.4375 80.4375 2.4375 80.4375 5.0625 82.4375 C6.0525 82.4375 7.0425 82.4375 8.0625 82.4375 C8.08962153 80.520912 8.10895097 78.6042127 8.125 76.6875 C8.13660156 75.62015625 8.14820313 74.5528125 8.16015625 73.453125 C8.07760087 70.90381499 7.80867558 68.85816409 7.0625 66.4375 C6.41023438 66.42332031 5.75796875 66.40914062 5.0859375 66.39453125 C-2.95621694 65.95565262 -2.95621694 65.95565262 -6.4375 63.375 C-9.48500747 59.79417872 -10.81181363 57.14654928 -10.9375 52.4375 C-10.46556477 49.11804543 -9.69595151 46.30782463 -7.9375 43.4375 C-4.75 41.875 -4.75 41.875 -1.9375 41.4375 C-2.1025 42.2625 -2.2675 43.0875 -2.4375 43.9375 C-3.01393522 47.97254654 -3.27144083 51.36342186 -2.9375 55.4375 C-0.22854293 58.66741035 2.97181691 59.07388372 7.0625 59.4375 C8.61298197 57.88701803 8.19220514 56.42213604 8.1953125 54.265625 C8.19740723 53.38318115 8.19950195 52.5007373 8.20166016 51.59155273 C8.1969873 50.63321533 8.19231445 49.67487793 8.1875 48.6875 C8.18411621 47.70918213 8.18073242 46.73086426 8.17724609 45.72290039 C8.12933111 38.76909839 7.97237988 31.82310939 7.6875 24.875 C7.64133545 23.56547363 7.64133545 23.56547363 7.59423828 22.22949219 C7.33870909 16.83687193 7.05471139 12.42971139 3.0625 8.4375 C0.0212844 7.64413941 -2.17823613 7.25281419 -5.25 8 Z " fill="#AA52E0" transform="translate(79.9375,33.5625)"/>
<path d="M0 0 C0.79124268 -0.00563965 1.58248535 -0.0112793 2.39770508 -0.01708984 C8.05570969 0.05570969 8.05570969 0.05570969 10.3125 2.3125 C10.4375 4.9375 10.4375 4.9375 10.3125 7.3125 C6.66920828 9.63915659 3.80535056 9.39691108 -0.4375 9.1875 C-17.61045865 8.83363553 -34.30756036 15.69517634 -47.6875 26.3125 C-50.23943104 28.80367077 -52.43384574 31.55076743 -54.6875 34.3125 C-55.265 34.96863281 -55.8425 35.62476563 -56.4375 36.30078125 C-68.55966671 50.66879582 -73.62071275 70.14314522 -73.00390625 88.70703125 C-71.2060295 109.19394779 -63.7299821 128.90021296 -48.6875 143.3125 C-32.80939797 156.55810693 -13.26861208 162.79773489 7.3125 161.3125 C23.26048129 159.40131191 36.36072385 154.39160678 48.3125 143.3125 C49.04210937 142.6628125 49.77171875 142.013125 50.5234375 141.34375 C64.44059897 128.33307031 72.66416533 106.25827968 73.3125 87.3125 C73.28993085 80.37335579 73.03831548 73.34371372 71.1875 66.625 C70.30452081 63.28229308 69.99753877 61.50597728 71.3125 58.3125 C73.375 57 73.375 57 75.3125 56.3125 C81.92515214 62.02342685 81.94635277 72.32296821 82.54296875 80.453125 C83.08658835 101.05889661 76.79011733 125.10765657 62.875 140.75 C61.36704348 142.28360203 59.84649998 143.8049483 58.3125 145.3125 C57.62671875 146.06789062 56.9409375 146.82328125 56.234375 147.6015625 C44.97827895 159.73313269 27.88826012 169.25442678 11.09277344 170.47363281 C-5.88853291 170.76818552 -21.17780089 170.03387538 -36.6875 162.3125 C-37.49058594 161.92835938 -38.29367188 161.54421875 -39.12109375 161.1484375 C-58.3440194 150.8583328 -71.96776669 131.4506715 -78.75 111.12890625 C-84.70888489 90.01497278 -83.31215488 65.49015156 -73.03320312 45.91479492 C-60.87538314 24.24829741 -42.9307919 9.80516557 -19.484375 2.28515625 C-12.98049601 0.51211386 -6.70460919 0.04646299 0 0 Z " fill="#A15EE7" transform="translate(94.6875,9.6875)"/>
<path d="M0 0 C0.99 0 1.98 0 3 0 C5.13054707 4.4750403 5.58524024 8.76110054 6.0625 13.625 C6.60681437 19.39231683 6.60681437 19.39231683 8 25 C8.73319458 24.2589502 8.73319458 24.2589502 9.48120117 23.50292969 C11.71395929 21.2492849 13.95068487 18.99961783 16.1875 16.75 C16.95642578 15.97269531 17.72535156 15.19539063 18.51757812 14.39453125 C26.49257943 6.38530247 26.49257943 6.38530247 30 4 C30.99 4 31.98 4 33 4 C32.59926293 10.08963194 30.70245445 13.64960944 27.1875 18.5625 C26.52911133 19.51286133 26.52911133 19.51286133 25.85742188 20.48242188 C24.99357822 21.72876985 24.12505299 22.97188842 23.25146484 24.21142578 C21.45551828 26.77816486 19.72740148 29.38675161 18 32 C18.74161377 32.11069824 19.48322754 32.22139648 20.24731445 32.33544922 C23.6035978 32.84087714 26.95801203 33.35779628 30.3125 33.875 C31.47974609 34.04902344 32.64699219 34.22304688 33.84960938 34.40234375 C34.96787109 34.57636719 36.08613281 34.75039063 37.23828125 34.9296875 C38.7857605 35.16534424 38.7857605 35.16534424 40.36450195 35.40576172 C43 36 43 36 46 38 C45.67 39.32 45.34 40.64 45 42 C41.83432793 42.65077173 38.66729923 43.2946984 35.5 43.9375 C34.1696875 44.21110352 34.1696875 44.21110352 32.8125 44.49023438 C27.55108545 45.55412335 22.3355105 46.40785806 17 47 C17.37809814 47.4940332 17.75619629 47.98806641 18.14575195 48.49707031 C19.86819864 50.74789594 21.59035204 52.99894581 23.3125 55.25 C23.90740234 56.02730469 24.50230469 56.80460937 25.11523438 57.60546875 C25.69208984 58.35957031 26.26894531 59.11367187 26.86328125 59.890625 C27.39219971 60.58188477 27.92111816 61.27314453 28.46606445 61.98535156 C28.97226318 62.65018555 29.47846191 63.31501953 30 64 C30.55582764 64.68803711 31.11165527 65.37607422 31.68432617 66.08496094 C33.35394658 68.51518964 33.24051899 70.11377215 33 73 C28.74088153 71.3130142 25.8223007 68.23205575 22.5625 65.125 C21.44031196 64.06350568 20.31663701 63.00358087 19.19140625 61.9453125 C18.69842041 61.47625488 18.20543457 61.00719727 17.69750977 60.52392578 C15.54409644 58.59071623 13.25973343 56.80778675 11 55 C9.68 62.59 8.36 70.18 7 78 C6.01 78 5.02 78 4 78 C2.81990204 75.63980407 2.70232315 73.83904283 2.46484375 71.2109375 C2.37783203 70.26992187 2.29082031 69.32890625 2.20117188 68.359375 C2.11416016 67.37453125 2.02714844 66.3896875 1.9375 65.375 C1.84662109 64.38242188 1.75574219 63.38984375 1.66210938 62.3671875 C1.43781564 59.91176132 1.21726893 57.45605611 1 55 C0.27554688 55.73605469 -0.44890625 56.47210938 -1.1953125 57.23046875 C-11.78954041 67.9474168 -11.78954041 67.9474168 -16 71 C-16.99 71 -17.98 71 -19 71 C-18.51815403 65.45877133 -16.4066017 61.83037234 -13.5 57.25 C-12.67674391 55.92208537 -11.8538121 54.59396963 -11.03125 53.265625 C-10.3609375 52.18796875 -9.690625 51.1103125 -9 50 C-8.67 49.34 -8.34 48.68 -8 48 C-11.96 47.67 -15.92 47.34 -20 47 C-19 43 -19 43 -17.00390625 41.515625 C-16.19824219 41.09796875 -15.39257812 40.6803125 -14.5625 40.25 C-13.75941406 39.82203125 -12.95632812 39.3940625 -12.12890625 38.953125 C-10 38 -10 38 -8 38 C-8.19471111 36.05000871 -8.19471111 36.05000871 -9 34 C-10.3153341 33.29848848 -11.65117592 32.63474075 -13 32 C-14.8125 30.0625 -14.8125 30.0625 -16 28 C-15.67 27.01 -15.34 26.02 -15 25 C-9.69447349 25.54138026 -5.79579951 26.85254116 -1 29 C-1.00785522 27.78884521 -1.00785522 27.78884521 -1.01586914 26.55322266 C-1.03659929 22.91048962 -1.04964749 19.26776898 -1.0625 15.625 C-1.07087891 14.35398437 -1.07925781 13.08296875 -1.08789062 11.7734375 C-1.09272461 9.95585937 -1.09272461 9.95585937 -1.09765625 8.1015625 C-1.10551147 6.42054443 -1.10551147 6.42054443 -1.11352539 4.70556641 C-1 2 -1 2 0 0 Z " fill="#A773FA" transform="translate(124,17)"/>
<path d="M0 0 C3.55959521 2.39588139 4.63500865 3.73656839 5.8125 7.8125 C5.874375 8.534375 5.93625 9.25625 6 10 C6.99 10 7.98 10 9 10 C9 26.5 9 43 9 60 C15.93 60.495 15.93 60.495 23 61 C30.32058824 63.79338235 30.32058824 63.79338235 32.203125 67.13671875 C32.59757812 68.05904297 32.59757812 68.05904297 33 69 C33.99 68.67 34.98 68.34 36 68 C42.47457538 67.46045205 45.61971899 68.37654544 51 72 C52 73 52 73 52.0625 76.0625 C52.041875 77.031875 52.02125 78.00125 52 79 C49.6875 79.625 49.6875 79.625 47 80 C45.515 79.01 45.515 79.01 44 78 C41.67612053 77.60612212 39.34206251 77.26513915 37 77 C37.0928125 78.794375 37.0928125 78.794375 37.1875 80.625 C37.16535453 84.81049449 36.36232786 87.45650821 34 91 C32.08740642 92.84446048 30.12792763 94.39223246 28 96 C28.680625 96.556875 29.36125 97.11375 30.0625 97.6875 C31.0215625 98.8321875 31.0215625 98.8321875 32 100 C31.75 102.75 31.75 102.75 31 105 C27.8125 105.8125 27.8125 105.8125 24 106 C19.97233526 103.02303041 18.76247753 100.82902434 18 96 C17.46375 95.484375 16.9275 94.96875 16.375 94.4375 C15.92125 93.963125 15.4675 93.48875 15 93 C15.3125 90.8125 15.3125 90.8125 16 89 C17.98567708 88.86979167 19.97135417 88.73958333 21.95703125 88.609375 C24.80722223 87.75922243 25.57000934 86.5722123 27 84 C27.47088545 81.51859095 27.47088545 81.51859095 27.375 78.9375 C27.38273437 78.08027344 27.39046875 77.22304687 27.3984375 76.33984375 C26.92531045 73.56138194 26.20653152 72.69650599 24 71 C19.22604782 69.40868261 13.96672962 69.93377694 9 70 C8.505 75.94 8.505 75.94 8 82 C7.01 81.01 6.02 80.02 5 79 C4.34 79.66 3.68 80.32 3 81 C2.93941406 80.03578125 2.87882812 79.0715625 2.81640625 78.078125 C2.73261719 76.81484375 2.64882812 75.5515625 2.5625 74.25 C2.48128906 72.99703125 2.40007812 71.7440625 2.31640625 70.453125 C2.07484478 67.81682447 1.75716066 65.51962706 1 63 C-0.10408203 62.96132812 -0.10408203 62.96132812 -1.23046875 62.921875 C-11.04412324 62.35146444 -11.04412324 62.35146444 -15 58 C-16.35550385 55.2889923 -16.16917207 53.08660831 -16.1875 50.0625 C-16.20167969 49.00160156 -16.21585938 47.94070312 -16.23046875 46.84765625 C-16 44 -16 44 -14 41 C-12.68 41 -11.36 41 -10 41 C-10.33 41.99 -10.66 42.98 -11 44 C-11.06802967 45.72795352 -11.08495645 47.45835365 -11.0625 49.1875 C-11.05347656 50.08855469 -11.04445313 50.98960938 -11.03515625 51.91796875 C-11.02355469 52.60503906 -11.01195313 53.29210937 -11 54 C-7.34523516 54.75245158 -3.68154028 55.39320873 0 56 C0.10534392 44.80599249 0.09296186 33.623875 -0.375 22.4375 C-0.40585693 21.56456299 -0.43671387 20.69162598 -0.46850586 19.79223633 C-0.73273738 13.64877013 -0.73273738 13.64877013 -3 8 C-6.90770987 6.43691605 -8.96034936 5.65344979 -13 7 C-14.42259481 12.30239883 -13.50085434 15.17692378 -11 20 C-10.4225 20.70125 -9.845 21.4025 -9.25 22.125 C-8 24 -8 24 -8.0625 26.625 C-9.21761154 29.55128258 -10.2134004 29.77770883 -13 31 C-19.78690494 26.16233669 -19.78690494 26.16233669 -20.6875 21.25 C-20.790625 20.1775 -20.89375 19.105 -21 18 C-23.17520052 16.21322814 -24.73542398 16.0396864 -27.5 15.625 C-30.91800123 16.13770018 -31.91982051 17.27424756 -34 20 C-34.33 21.03125 -34.66 22.0625 -35 23.125 C-36 26 -36 26 -38.125 27.375 C-38.74375 27.58125 -39.3625 27.7875 -40 28 C-40.41813284 21.93707386 -40.13274522 18.80292012 -36 14 C-31.53657144 10.06168068 -26.62668269 10.70500887 -21 11 C-20.75765625 10.37351562 -20.5153125 9.74703125 -20.265625 9.1015625 C-19.93046875 8.28429688 -19.5953125 7.46703125 -19.25 6.625 C-18.92515625 5.81289063 -18.6003125 5.00078125 -18.265625 4.1640625 C-14.65568616 -2.00848724 -6.21961662 -0.77252526 0 0 Z " fill="#AE70FA" transform="translate(87,36)"/>
<path d="M0 0 C2.64912621 1.36470138 3.37907089 2.98665156 4.40234375 5.7265625 C11.08609202 29.37674868 5.48074514 54.03545107 -5.734375 75.29296875 C-8.7122607 80.61574038 -12.60706872 84.80673133 -16.9375 89.0625 C-17.96617187 90.19558594 -17.96617187 90.19558594 -19.015625 91.3515625 C-30.27172105 103.48313269 -47.36173988 113.00442678 -64.15722656 114.22363281 C-100.60440104 114.85583471 -100.60440104 114.85583471 -113.78515625 104.62890625 C-115.1875 103.25 -115.1875 103.25 -116.9375 101.0625 C-115.9475 100.5675 -115.9475 100.5675 -114.9375 100.0625 C-113.761875 100.5575 -113.761875 100.5575 -112.5625 101.0625 C-109.65796637 102.168989 -108.79983838 101.93947176 -105.9375 101.0625 C-106.62714844 100.71058594 -107.31679687 100.35867187 -108.02734375 99.99609375 C-114.54007167 96.5744548 -120.29072593 92.77511638 -125.9375 88.0625 C-125.4425 87.0725 -125.4425 87.0725 -124.9375 86.0625 C-124.30585937 86.55878906 -123.67421875 87.05507812 -123.0234375 87.56640625 C-105.37994699 100.96427296 -86.38260429 107.27294049 -64.05859375 104.59765625 C-49.54986904 102.39404382 -37.77221597 97.10610972 -26.9375 87.0625 C-26.20789063 86.4128125 -25.47828125 85.763125 -24.7265625 85.09375 C-10.80940103 72.08307031 -2.58583467 50.00827968 -1.9375 31.0625 C-1.96006915 24.12335579 -2.21168452 17.09371372 -4.0625 10.375 C-4.94457211 7.03572702 -5.07727261 5.29185573 -3.9375 2.0625 C-1.9375 0.0625 -1.9375 0.0625 0 0 Z " fill="#9475F2" transform="translate(169.9375,65.9375)"/>
<path d="M0 0 C2.3125 0.0625 2.3125 0.0625 5 1 C9.1418935 5.61525276 10.69537777 10.89832441 11 17 C9.92835086 24.45227278 5.61084218 30.788748 0.05859375 35.7265625 C-2 37 -2 37 -6 37 C-5.773125 37.845625 -5.54625 38.69125 -5.3125 39.5625 C-4.7559602 45.6844378 -7.44399609 49.5676909 -11.1875 54.125 C-16.58294508 59.90262244 -20.9533299 63.24905328 -29.0625 63.5625 C-34.52790245 63.31407262 -37.70260007 62.38305952 -42 59 C-43.9375 56.25 -43.9375 56.25 -45 54 C-44.01 52.68 -43.02 51.36 -42 50 C-39.35652976 50.45316633 -37.08148874 50.96354451 -34.625 52.0625 C-30.38019759 53.57850086 -26.66089288 53.75328685 -22.51953125 51.875 C-19.35348342 49.51887139 -18.02906874 47.16601874 -16.1875 43.6875 C-15.58292969 42.57761719 -14.97835937 41.46773437 -14.35546875 40.32421875 C-12.96469046 36.91340514 -12.71920598 34.63931074 -13 31 C-12.31292969 30.75765625 -11.62585938 30.5153125 -10.91796875 30.265625 C-10.01691406 29.93046875 -9.11585938 29.5953125 -8.1875 29.25 C-7.29417969 28.92515625 -6.40085938 28.6003125 -5.48046875 28.265625 C-2.66873824 26.83097825 -1.55432503 25.72870394 0 23 C1.26066503 18.23660112 1.65721336 13.69983621 -0.5 9.1875 C-2.11528532 5.75501869 -2.23891675 4.51026412 -1 1 C-0.67 0.67 -0.34 0.34 0 0 Z " fill="#8B87E0" transform="translate(144,96)"/>
<path d="M0 0 C0.66 0 1.32 0 2 0 C2 16.17 2 32.34 2 49 C8.93 49.495 8.93 49.495 16 50 C23.32058824 52.79338235 23.32058824 52.79338235 25.203125 56.13671875 C25.46609375 56.75160156 25.7290625 57.36648437 26 58 C27.485 57.505 27.485 57.505 29 57 C35.47457538 56.46045205 38.61971899 57.37654544 44 61 C45 62 45 62 45.0625 65.0625 C45.041875 66.031875 45.02125 67.00125 45 68 C42.6875 68.625 42.6875 68.625 40 69 C39.01 68.34 38.02 67.68 37 67 C34.67612053 66.60612212 32.34206251 66.26513915 30 66 C30.0928125 67.794375 30.0928125 67.794375 30.1875 69.625 C30.16535453 73.81049449 29.36232786 76.45650821 27 80 C25.08740642 81.84446048 23.12792763 83.39223246 21 85 C21.680625 85.556875 22.36125 86.11375 23.0625 86.6875 C24.0215625 87.8321875 24.0215625 87.8321875 25 89 C24.75 91.75 24.75 91.75 24 94 C20.8125 94.8125 20.8125 94.8125 17 95 C12.97233526 92.02303041 11.76247753 89.82902434 11 85 C10.46375 84.484375 9.9275 83.96875 9.375 83.4375 C8.92125 82.963125 8.4675 82.48875 8 82 C8.3125 79.8125 8.3125 79.8125 9 78 C10.98567708 77.86979167 12.97135417 77.73958333 14.95703125 77.609375 C17.80722223 76.75922243 18.57000934 75.5722123 20 73 C20.47088545 70.51859095 20.47088545 70.51859095 20.375 67.9375 C20.38273437 67.08027344 20.39046875 66.22304687 20.3984375 65.33984375 C19.92531045 62.56138194 19.20653152 61.69650599 17 60 C12.22604782 58.40868261 6.96672962 58.93377694 2 59 C1.67 62.96 1.34 66.92 1 71 C0.67 71 0.34 71 0 71 C0 66.38 0 61.76 0 57 C5.68333087 54.15833456 13.36607127 56.07375633 19.1875 57.7578125 C19.785625 57.83773437 20.38375 57.91765625 21 58 C21.66 57.34 22.32 56.68 23 56 C17.9410499 52.98564155 13.85151676 52.48235431 8.125 52.3125 C6.949375 52.26125977 6.949375 52.26125977 5.75 52.20898438 C3.83381252 52.12719588 1.91693285 52.0619054 0 52 C-0.9892063 49.0323811 -1.09308174 47.24542185 -1.02172852 44.16137695 C-1.00163223 43.1805867 -0.98153595 42.19979645 -0.96083069 41.18928528 C-0.93379562 40.13295395 -0.90676056 39.07662262 -0.87890625 37.98828125 C-0.85529526 36.90491989 -0.83168427 35.82155853 -0.80735779 34.70536804 C-0.73070914 31.2409458 -0.64668961 27.7767464 -0.5625 24.3125 C-0.50928054 21.96550574 -0.45654014 19.61850057 -0.40429688 17.27148438 C-0.27509233 11.51418466 -0.13983367 5.75705082 0 0 Z " fill="#9181DE" transform="translate(94,47)"/>
<path d="M0 0 C0.99 0 1.98 0 3 0 C5.09519978 4.43689365 5.61756031 8.68348233 6.125 13.5 C6.21136719 14.24636719 6.29773438 14.99273437 6.38671875 15.76171875 C6.80652879 19.52668184 7.10541215 23.20516244 7 27 C6.690625 26.360625 6.38125 25.72125 6.0625 25.0625 C5.1654837 23.06389179 5.1654837 23.06389179 4 22 C3.60030588 19.47638387 3.24957183 16.97179759 2.9375 14.4375 C2.628125 11.983125 2.31875 9.52875 2 7 C1.67 14.59 1.34 22.18 1 30 C-3.18770101 31.04692525 -4.32171213 30.85469996 -8.25 29.5625 C-9.14203125 29.27503906 -10.0340625 28.98757812 -10.953125 28.69140625 C-11.62859375 28.46324219 -12.3040625 28.23507813 -13 28 C-12.175 28.78375 -11.35 29.5675 -10.5 30.375 C-8 33 -8 33 -8 35 C-7.01 35.33 -6.02 35.66 -5 36 C-5.99 36.495 -5.99 36.495 -7 37 C-7.33 37.99 -7.66 38.98 -8 40 C-9.84765625 41.16796875 -9.84765625 41.16796875 -12.0625 42.1875 C-13.361875 42.785625 -14.66125 43.38375 -16 44 C-12.04 44.33 -8.08 44.66 -4 45 C-4.33 46.32 -4.66 47.64 -5 49 C-3.35 49.33 -1.7 49.66 0 50 C0 50.66 0 51.32 0 52 C0.99 52 1.98 52 3 52 C4.95021536 58.46008837 5.22262303 64.2718373 5 71 C5.13277344 70.22914062 5.26554687 69.45828125 5.40234375 68.6640625 C5.57894531 67.66117187 5.75554687 66.65828125 5.9375 65.625 C6.11152344 64.62726563 6.28554687 63.62953125 6.46484375 62.6015625 C7 60 7 60 8 58 C8.0396713 56.33380554 8.04384447 54.66608987 8 53 C9.6875 52.1875 9.6875 52.1875 12 52 C13.70779973 53.62449243 15.37550757 55.29220027 17 57 C17.99 57 18.98 57 20 57 C20 55.35 20 53.7 20 52 C23.529805 55.19888578 26.42922402 58.70513765 29.3125 62.5 C30.00988281 63.4178125 30.70726562 64.335625 31.42578125 65.28125 C33.11123987 68.1921165 33.35242021 69.70278041 33 73 C28.74088153 71.3130142 25.8223007 68.23205575 22.5625 65.125 C21.44031196 64.06350568 20.31663701 63.00358087 19.19140625 61.9453125 C18.69842041 61.47625488 18.20543457 61.00719727 17.69750977 60.52392578 C15.54409644 58.59071623 13.25973343 56.80778675 11 55 C9.68 62.59 8.36 70.18 7 78 C6.01 78 5.02 78 4 78 C2.81990204 75.63980407 2.70232315 73.83904283 2.46484375 71.2109375 C2.37783203 70.26992187 2.29082031 69.32890625 2.20117188 68.359375 C2.11416016 67.37453125 2.02714844 66.3896875 1.9375 65.375 C1.84662109 64.38242188 1.75574219 63.38984375 1.66210938 62.3671875 C1.43781564 59.91176132 1.21726893 57.45605611 1 55 C0.27554688 55.73605469 -0.44890625 56.47210938 -1.1953125 57.23046875 C-11.78954041 67.9474168 -11.78954041 67.9474168 -16 71 C-16.99 71 -17.98 71 -19 71 C-18.51815403 65.45877133 -16.4066017 61.83037234 -13.5 57.25 C-12.67674391 55.92208537 -11.8538121 54.59396963 -11.03125 53.265625 C-10.3609375 52.18796875 -9.690625 51.1103125 -9 50 C-8.67 49.34 -8.34 48.68 -8 48 C-11.96 47.67 -15.92 47.34 -20 47 C-19 43 -19 43 -17.00390625 41.515625 C-16.19824219 41.09796875 -15.39257812 40.6803125 -14.5625 40.25 C-13.75941406 39.82203125 -12.95632812 39.3940625 -12.12890625 38.953125 C-10 38 -10 38 -8 38 C-8.19471111 36.05000871 -8.19471111 36.05000871 -9 34 C-10.3153341 33.29848848 -11.65117592 32.63474075 -13 32 C-14.8125 30.0625 -14.8125 30.0625 -16 28 C-15.67 27.01 -15.34 26.02 -15 25 C-9.69447349 25.54138026 -5.79579951 26.85254116 -1 29 C-1.00785522 27.78884521 -1.00785522 27.78884521 -1.01586914 26.55322266 C-1.03659929 22.91048962 -1.04964749 19.26776898 -1.0625 15.625 C-1.07087891 14.35398437 -1.07925781 13.08296875 -1.08789062 11.7734375 C-1.09272461 9.95585937 -1.09272461 9.95585937 -1.09765625 8.1015625 C-1.10551147 6.42054443 -1.10551147 6.42054443 -1.11352539 4.70556641 C-1 2 -1 2 0 0 Z " fill="#9D7CDA" transform="translate(124,17)"/>
<path d="M0 0 C1.65 0 3.3 0 5 0 C5 5.61 5 11.22 5 17 C4.01 16.34 3.02 15.68 2 15 C1.63671875 12.72265625 1.63671875 12.72265625 1.6875 10.0625 C1.69136719 9.18722656 1.69523437 8.31195313 1.69921875 7.41015625 C2 5 2 5 4 2 C2.02463255 2.34786708 2.02463255 2.34786708 0 3 C-2.10672598 7.21345195 -1.50665527 12.42178972 -1 17 C0.58333333 20.41666667 0.58333333 20.41666667 4 22 C7.67051641 22.67017856 11.27273898 22.92819637 15 23 C16.45008384 26.3186878 17.30215104 29.20735331 17.625 32.8125 C17.69976562 33.60269531 17.77453125 34.39289063 17.8515625 35.20703125 C17.90054688 35.79871094 17.94953125 36.39039063 18 37 C18.99 35.68 19.98 34.36 21 33 C22.02470958 41.0944976 21.90103167 48.75918398 21.1875 56.875 C21.10435547 57.97585937 21.02121094 59.07671875 20.93554688 60.2109375 C20.51906721 65.22085347 20.06200362 69.36955416 18 74 C16.35 74 14.7 74 13 74 C13.33 68.06 13.66 62.12 14 56 C13.34 56 12.68 56 12 56 C12.103125 55.0925 12.20625 54.185 12.3125 53.25 C12.30098593 49.90112435 12.30098593 49.90112435 10 47.625 C6.24075266 45.58874103 3.13388246 45.05622683 -1 46 C-3.64334049 47.44136868 -5.6671419 49.05595158 -8 51 C-9.32 50.34 -10.64 49.68 -12 49 C-11.76001446 42.88036865 -11.76001446 42.88036865 -9.66796875 40.45703125 C-5.0500861 36.62564929 -2.15756289 35.66555112 3.67578125 35.703125 C7.15144733 36.14707562 9.31713214 37.84061855 12 40 C12.66 40.33 13.32 40.66 14 41 C14 35.72 14 30.44 14 25 C12.494375 25.12375 10.98875 25.2475 9.4375 25.375 C5.48323005 25.36378221 3.13715594 24.95401204 0 22.5 C-3.3500135 19.1102944 -4.98264648 15.79824828 -5 11 C-4.14064592 6.73733095 -3.10803677 3.10803677 0 0 Z " fill="#AB5DEC" transform="translate(73,75)"/>
<path d="M0 0 C3.8125 0.9375 3.8125 0.9375 5.8125 2.9375 C5.9375 5.5625 5.9375 5.5625 5.8125 7.9375 C5.090625 7.1125 4.36875 6.2875 3.625 5.4375 C1.08647907 2.78398035 1.08647907 2.78398035 -1.8125 2.3125 C-4.38549885 2.7489324 -4.38549885 2.7489324 -6.0625 5.125 C-7.39861218 8.46528046 -7.59332733 9.62967099 -6.1875 12.9375 C-4.7334375 14.1440625 -4.7334375 14.1440625 -3.25 15.375 C0.07317901 18.15561917 0.84923943 19.79547957 1.8125 23.9375 C0.4925 25.2575 -0.8275 26.5775 -2.1875 27.9375 C-3.05375 27.1125 -3.92 26.2875 -4.8125 25.4375 C-7.30106307 23.34993761 -8.05927407 22.9522953 -11.4375 22.5625 C-14.14302088 22.78098386 -14.14302088 22.78098386 -16.1875 23.9375 C-16.69266999 26.02725009 -16.69266999 26.02725009 -16.875 28.4375 C-16.96136719 29.2521875 -17.04773437 30.066875 -17.13671875 30.90625 C-17.15347656 31.5765625 -17.17023437 32.246875 -17.1875 32.9375 C-15.51561639 34.60938361 -13.22718578 34.38139228 -10.9375 34.6875 C-7.21538324 35.36028833 -5.22702176 35.91192709 -2 38 C0.48714334 42.03088748 0.26494744 45.32253608 -0.1875 49.9375 C-1.1775 50.4325 -1.1775 50.4325 -2.1875 50.9375 C-4.91176311 48.58472731 -6.0016763 46.31253669 -7.1875 42.9375 C-13.19478116 42.40392627 -13.19478116 42.40392627 -18.6875 44.4375 C-20.80024178 47.9587363 -20.91511519 50.85172784 -21.1875 54.9375 C-23.1875 52.9375 -23.1875 52.9375 -23.25 50.5625 C-23.229375 49.69625 -23.20875 48.83 -23.1875 47.9375 C-23.414375 47.2775 -23.64125 46.6175 -23.875 45.9375 C-24.34447603 42.93285338 -22.80736809 41.3996995 -21.1875 38.9375 C-21.1875 38.2775 -21.1875 37.6175 -21.1875 36.9375 C-21.8475 36.9375 -22.5075 36.9375 -23.1875 36.9375 C-25.13395517 33.04458966 -24.55205518 28.36257932 -23.5 24.25 C-21.19127101 20.1822394 -18.04304536 17.50786357 -14.1875 14.9375 C-12.99517387 12.88746045 -12.99517387 12.88746045 -12.1875 10.9375 C-11.5275 10.9375 -10.8675 10.9375 -10.1875 10.9375 C-10.0946875 9.6071875 -10.0946875 9.6071875 -10 8.25 C-8.6336662 2.67956218 -5.91436911 -0.60219031 0 0 Z " fill="#A958E4" transform="translate(61.1875,51.0625)"/>
<path d="M0 0 C0.86367188 0.57878906 1.72734375 1.15757812 2.6171875 1.75390625 C23.53719231 15.68219299 42.9847548 22.2494332 68.23388672 17.28515625 C73.58826954 16.16425831 78.82024247 14.75563897 84 13 C84 13.66 84 14.32 84 15 C80 16.33333333 76 17.66666667 72 19 C71.0203125 19.350625 70.040625 19.70125 69.03125 20.0625 C65.73350839 21.08242009 62.5404433 21.63707953 59.125 22.125 C57.97257812 22.29257813 56.82015625 22.46015625 55.6328125 22.6328125 C54.76398438 22.75398438 53.89515625 22.87515625 53 23 C53.495 23.99 53.495 23.99 54 25 C64.97095248 25.78363946 76.58996172 22.76876286 86.30078125 17.63671875 C88 17 88 17 91 18 C71.83530115 29.06561236 50.95232289 30.652469 29.56640625 25.98046875 C21.68785054 23.81451313 14.23545452 21.54431815 9 15 C9.66 14.67 10.32 14.34 11 14 C11.78375 14.33 12.5675 14.66 13.375 15 C16.27953363 16.106489 17.13766162 15.87697176 20 15 C18.96552734 14.47212891 18.96552734 14.47212891 17.91015625 13.93359375 C11.51181119 10.57204895 5.25391488 7.03338018 0 2 C0 1.34 0 0.68 0 0 Z " fill="#9D68EE" transform="translate(44,152)"/>
<path d="M0 0 C0.33 0 0.66 0 1 0 C1.08765069 4.02069425 1.14061018 8.0411401 1.1875 12.0625 C1.21263672 13.19623047 1.23777344 14.32996094 1.26367188 15.49804688 C1.34724137 25.05282535 -0.23493673 31.07386379 -7 38 C-11.26919048 40.60894974 -16.13555195 40.66865265 -21 40 C-26.37954263 38.11394521 -29.77879771 34.58777295 -33 30 C-33 29.01 -33 28.02 -33 27 C-35.31 26.01 -37.62 25.02 -40 24 C-36.98569716 22.99523239 -35.24716072 22.98265225 -32.125 23.125 C-27.8783453 23.15590724 -25.30316194 22.90277867 -22 20 C-19.63899477 16.78923522 -19.63899477 16.78923522 -19 13 C-21.24598049 12.57869093 -21.24598049 12.57869093 -24 13 C-25.44659037 14.2858581 -26.89241977 15.57269188 -28.32421875 16.875 C-31.53444435 19.03011649 -34.24592577 18.48439668 -38 18 C-40.5 16.5 -40.5 16.5 -42 15 C-41.67 13.68 -41.34 12.36 -41 11 C-40.67 11.66 -40.34 12.32 -40 13 C-38.01930314 15.37695757 -38.01930314 15.37695757 -34.25 15.5625 C-29.99978656 15.39093175 -27.82810407 13.65551971 -24.6015625 11.0625 C-23 10 -23 10 -20.1875 9.9375 C-17.51764652 11.23428598 -17.17856278 12.36023269 -16 15 C-16.93137592 16.29608947 -17.8703566 17.58671632 -18.8125 18.875 C-19.33457031 19.59429687 -19.85664062 20.31359375 -20.39453125 21.0546875 C-22 23 -22 23 -25 25 C-25.99 25 -26.98 25 -28 25 C-25.64440148 28.04264809 -23.80297518 29.30226183 -20.0625 29.875 C-16.53289688 30.31006042 -14.02196824 29.94126436 -11 28 C-10.12182083 25.16465019 -9.58086283 22.77636405 -9.1875 19.875 C-9.06697266 19.12089844 -8.94644531 18.36679688 -8.82226562 17.58984375 C-8.52793167 15.72965315 -8.26128668 13.86511952 -8 12 C-7.67 12 -7.34 12 -7 12 C-6.97282308 14.06242617 -6.9535242 16.12495703 -6.9375 18.1875 C-6.92589844 19.33605469 -6.91429687 20.48460937 -6.90234375 21.66796875 C-6.98807168 24.59300586 -7.32150977 27.16316291 -8 30 C-6.35 29.67 -4.7 29.34 -3 29 C-2.06206509 25.71550999 -1.72521508 22.54281038 -1.46484375 19.140625 C-1.37783203 18.02558594 -1.29082031 16.91054687 -1.20117188 15.76171875 C-1.11416016 14.60285156 -1.02714844 13.44398438 -0.9375 12.25 C-0.84662109 11.07566406 -0.75574219 9.90132812 -0.66210938 8.69140625 C-0.43836385 5.79449052 -0.21777821 2.89736944 0 0 Z " fill="#9A64D9" transform="translate(94,119)"/>
<path d="M0 0 C0.66 0.66 1.32 1.32 2 2 C1.65128193 5.57583787 0.53211763 8.14359536 -1.3125 11.1875 C-9.63954675 25.77186512 -10.34719987 40.57692307 -11 57 C-10.34 57.33 -9.68 57.66 -9 58 C-9.03480469 58.97839844 -9.03480469 58.97839844 -9.0703125 59.9765625 C-9.17804862 65.19406876 -8.72332899 69.04542915 -7 74 C-6.83292689 76.69282546 -6.9068299 79.29806718 -7 82 C-8.485 82.495 -8.485 82.495 -10 83 C-18.88022511 63.51523423 -18.47809798 38.27910284 -12 18 C-9.06522363 11.45464327 -5.08562487 5.08562487 0 0 Z " fill="#A45DE8" transform="translate(31,45)"/>
<path d="M0 0 C0.66 0 1.32 0 2 0 C3.67825962 8.39129809 3.70639559 14.09218987 -0.36328125 21.66015625 C-3.34745526 25.92631433 -7.38464962 28.69232481 -12 31 C-19.40188017 31.68515127 -25.0515955 31.68278652 -31 27 C-32.9375 24.25 -32.9375 24.25 -34 22 C-33.01 20.68 -32.02 19.36 -31 18 C-28.35652976 18.45316633 -26.08148874 18.96354451 -23.625 20.0625 C-20.21911965 21.27888584 -17.59593262 21.32106541 -14 21 C-11.12694028 19.59539303 -9.25489001 18.25489001 -7 16 C-6.34 16.33 -5.68 16.66 -5 17 C-4.70996094 15.95199219 -4.70996094 15.95199219 -4.4140625 14.8828125 C-4.15367187 13.97273437 -3.89328125 13.06265625 -3.625 12.125 C-3.36976563 11.22007812 -3.11453125 10.31515625 -2.8515625 9.3828125 C-2 7 -2 7 0 5 C0.16687448 2.41645782 0.16687448 2.41645782 0 0 Z " fill="#8F90EB" transform="translate(133,128)"/>
<path d="M0 0 C0.33 0 0.66 0 1 0 C1.33 6.6 1.66 13.2 2 20 C2.33 20 2.66 20 3 20 C3.33 23.3 3.66 26.6 4 30 C5.71896484 30.03867188 5.71896484 30.03867188 7.47265625 30.078125 C9.0026403 30.13444343 10.53258675 30.1917899 12.0625 30.25 C12.81466797 30.26417969 13.56683594 30.27835938 14.34179688 30.29296875 C19.94889324 30.53570019 23.32275726 31.89426113 28 35 C27 37 27 37 25.375 37.75 C22.64786805 38.03706652 20.7854706 37.31859435 18.21484375 36.48046875 C13.56772723 35.47236411 8.72973712 35.86020481 4 36 C3.96261719 36.77085938 3.92523438 37.54171875 3.88671875 38.3359375 C3.82097656 39.33882812 3.75523438 40.34171875 3.6875 41.375 C3.62949219 42.37273437 3.57148437 43.37046875 3.51171875 44.3984375 C3.34285156 45.25695312 3.17398438 46.11546875 3 47 C2.01 47.66 1.02 48.32 0 49 C-0.06058594 48.03578125 -0.12117188 47.0715625 -0.18359375 46.078125 C-0.30927734 44.18320313 -0.30927734 44.18320313 -0.4375 42.25 C-0.51871094 40.99703125 -0.59992188 39.7440625 -0.68359375 38.453125 C-0.92515522 35.81682447 -1.24283934 33.51962706 -2 31 C-2.73605469 30.97421875 -3.47210938 30.9484375 -4.23046875 30.921875 C-14.04412324 30.35146444 -14.04412324 30.35146444 -18 26 C-19.35550385 23.2889923 -19.16917207 21.08660831 -19.1875 18.0625 C-19.20167969 17.00160156 -19.21585937 15.94070312 -19.23046875 14.84765625 C-19 12 -19 12 -17 9 C-15.68 9 -14.36 9 -13 9 C-13.33 9.99 -13.66 10.98 -14 12 C-14.06802967 13.72795352 -14.08495645 15.45835365 -14.0625 17.1875 C-14.04896484 18.53908203 -14.04896484 18.53908203 -14.03515625 19.91796875 C-14.02355469 20.60503906 -14.01195313 21.29210937 -14 22 C-13.01 22 -12.02 22 -11 22 C-11 22.99 -11 23.98 -11 25 C-7.37 25 -3.74 25 0 25 C0 16.75 0 8.5 0 0 Z " fill="#B36EFA" transform="translate(90,68)"/>
<path d="M0 0 C3.27007674 1.83941816 4.02870763 4.6881193 5 8.125 C9.36944502 28.26244226 7.12070899 50.90772382 -3 69.125 C-4.28226945 65.5640479 -3.71916503 63.77388919 -2.1875 60.375 C1.30247166 52.56351108 2.48826313 44.53453298 3.625 36.125 C3.7590625 35.15949219 3.893125 34.19398437 4.03125 33.19921875 C4.35804154 30.84165124 4.68087073 28.48361476 5 26.125 C4.34 26.125 3.68 26.125 3 26.125 C2.67 27.115 2.34 28.105 2 29.125 C1.67 27.475 1.34 25.825 1 24.125 C1.020625 25.383125 1.04125 26.64125 1.0625 27.9375 C1.10886083 30.76551087 0.91692961 32.37421116 0 35.125 C-0.0825 36.32125 -0.165 37.5175 -0.25 38.75 C-0.75634462 43.67460974 -2.01958081 48.3165425 -3.375 53.0625 C-3.58415039 53.82062988 -3.79330078 54.57875977 -4.00878906 55.35986328 C-5.63915409 60.88443606 -5.63915409 60.88443606 -9 63.125 C-7.84787547 57.65240849 -6.48083133 52.31390516 -4.9375 46.9375 C-1.10414599 32.90939195 -2.26117857 20.42093051 -4.64453125 6.30859375 C-5 3.125 -5 3.125 -3.8125 1.125 C-2 0.125 -2 0.125 0 0 Z " fill="#9565DC" transform="translate(170,65.875)"/>
<path d="M0 0 C3.96 0.33 7.92 0.66 12 1 C11.67 1.99 11.34 2.98 11 4 C10.01 4.33 9.02 4.66 8 5 C8 9.95 8 14.9 8 20 C8.66 20 9.32 20 10 20 C10.103125 20.61875 10.20625 21.2375 10.3125 21.875 C10.87525373 24.36526484 10.87525373 24.36526484 14 26 C19.10281736 26.70907176 19.10281736 26.70907176 23.6796875 24.87890625 C24.42605469 24.19634766 24.42605469 24.19634766 25.1875 23.5 C28 21 28 21 30.875 20.6875 C31.57625 20.790625 32.2775 20.89375 33 21 C34 24 34 24 33.14453125 25.75390625 C32.70496094 26.35074219 32.26539063 26.94757813 31.8125 27.5625 C31.38582031 28.16191406 30.95914063 28.76132813 30.51953125 29.37890625 C28.14985262 31.90696957 26.07139241 32.87977775 22.6328125 33.265625 C11.38184303 33.1955255 11.38184303 33.1955255 7.15234375 29.296875 C3.60727222 25.48246539 1.16681643 22.18585079 0 17 C0.66 17 1.32 17 2 17 C1.98839844 16.31292969 1.97679687 15.62585938 1.96484375 14.91796875 C1.95582031 14.01691406 1.94679687 13.11585937 1.9375 12.1875 C1.92589844 11.29417969 1.91429687 10.40085937 1.90234375 9.48046875 C2 7 2 7 3 4 C2.34 4 1.68 4 1 4 C0.67 2.68 0.34 1.36 0 0 Z " fill="#A457DB" transform="translate(42,110)"/>
<path d="M0 0 C0.66 0 1.32 0 2 0 C2 0.66 2 1.32 2 2 C2.9590625 2.4021875 2.9590625 2.4021875 3.9375 2.8125 C6 4 6 4 7 7 C7.72346974 13.99354082 5.94728592 18.23457027 2 24 C1.34 24.66 0.68 25.32 0 26 C1.32 26.99 2.64 27.98 4 29 C3.67 30.65 3.34 32.3 3 34 C-0.1875 34.8125 -0.1875 34.8125 -4 35 C-8.02766474 32.02303041 -9.23752247 29.82902434 -10 25 C-10.53625 24.484375 -11.0725 23.96875 -11.625 23.4375 C-12.07875 22.963125 -12.5325 22.48875 -13 22 C-12.6875 19.8125 -12.6875 19.8125 -12 18 C-9.02148438 17.8046875 -9.02148438 17.8046875 -6.04296875 17.609375 C-3.8804191 17.13142664 -3.8804191 17.13142664 -2.28125 15.375 C-0.60916367 12.27552291 -0.48773393 9.75467854 -0.3125 6.25 C-0.24675781 5.07953125 -0.18101563 3.9090625 -0.11328125 2.703125 C-0.07589844 1.81109375 -0.03851563 0.9190625 0 0 Z " fill="#9191F6" transform="translate(115,107)"/>
<path d="M0 0 C2 2 2 2 3 5 C3.66 5 4.32 5 5 5 C4.76664958 8.16760778 4.52539488 11.33411403 4.26953125 14.5 C4.11405942 16.51888055 3.97614495 18.53961762 3.88671875 20.5625 C3.48956913 27.28000217 1.400372 33.29682735 -0.84375 39.58203125 C-1.79918877 42.40638573 -2.50838496 45.06706938 -3 48 C-4.485 48.495 -4.485 48.495 -6 49 C-6 49.99 -6 50.98 -6 52 C-6.66 52 -7.32 52 -8 52 C-8.185625 52.928125 -8.37125 53.85625 -8.5625 54.8125 C-10 58 -10 58 -13.375 59.6875 C-14.57125 60.120625 -15.7675 60.55375 -17 61 C-19.33878876 62.56328365 -19.33878876 62.56328365 -21 64 C-19.24060036 60.18227361 -16.86019282 57.16545565 -14.2421875 53.90234375 C-12.72663015 51.96001379 -12.72663015 51.96001379 -13 49 C-10.55813953 42.37209302 -10.55813953 42.37209302 -7 40 C-6.03737828 37.89985971 -6.03737828 37.89985971 -5.39453125 35.421875 C-5.00297852 34.05095703 -5.00297852 34.05095703 -4.60351562 32.65234375 C-4.21196289 31.21568359 -4.21196289 31.21568359 -3.8125 29.75 C-3.53986328 28.80769531 -3.26722656 27.86539063 -2.98632812 26.89453125 C-1.65076466 22.12131445 -0.76930718 17.9956929 -1 13 C-0.67 12.34 -0.34 11.68 0 11 C0.07033769 9.12620395 0.0843022 7.24998898 0.0625 5.375 C0.05347656 4.37210937 0.04445312 3.36921875 0.03515625 2.3359375 C0.02355469 1.56507812 0.01195312 0.79421875 0 0 Z " fill="#9868E9" transform="translate(170,87)"/>
<path d="M0 0 C0.66 0 1.32 0 2 0 C3.125 3.75 3.125 3.75 2 6 C1.75 9 1.75 9 2 12 C4.54852478 14.54852478 6.30033397 14.57441689 9.8125 15.25 C16.60101884 16.871747 16.60101884 16.871747 19.25 19.8125 C21.13667621 23.24894595 21.45884329 25.1457164 21 29 C20.34 29.33 19.68 29.66 19 30 C16.27573689 27.64722731 15.1858237 25.37503669 14 22 C7.99271884 21.46642627 7.99271884 21.46642627 2.5 23.5 C0.38725822 27.0212363 0.27238481 29.91422784 0 34 C-2 32 -2 32 -2.0625 29.625 C-2.041875 28.75875 -2.02125 27.8925 -2 27 C-2.226875 26.34 -2.45375 25.68 -2.6875 25 C-3.15697603 21.99535338 -1.61986809 20.4621995 0 18 C0 17.34 0 16.68 0 16 C-0.66 16 -1.32 16 -2 16 C-4.01572036 11.96855928 -3.39099044 7.22510337 -2.0625 3.0625 C-1 1 -1 1 0 0 Z " fill="#B054EA" transform="translate(40,72)"/>
<path d="M0 0 C0.33 0 0.66 0 1 0 C1.15368372 5.00112432 0.60825893 9.31834386 -0.5 14.1875 C-3.95219714 31.10767644 -2.7289664 48.7098086 3 65 C3.99 64.505 3.99 64.505 5 64 C5.22801438 58.4580151 5.22801438 58.4580151 4 53.125 C2.5968436 48.74013624 2.83758058 44.5657903 3 40 C3.33 40 3.66 40 4 40 C4.24234375 41.18335938 4.4846875 42.36671875 4.734375 43.5859375 C7.1682738 55.18627473 7.1682738 55.18627473 11.36328125 66.25 C11.67845703 67.11625 11.67845703 67.11625 12 68 C11.67 68.66 11.34 69.32 11 70 C10.01 69.01 9.02 68.02 8 67 C7.01 67.99 7.01 67.99 6 69 C6.93241504 70.91914553 7.87114475 72.83522386 8.8125 74.75 C9.33457031 75.81734375 9.85664063 76.8846875 10.39453125 77.984375 C11.7616692 80.55233242 13.17715463 82.74470783 15 85 C14.67 85.66 14.34 86.32 14 87 C4.81794236 76.92843053 -1.36849476 63.33151002 -4 50 C-4.18046875 49.10925781 -4.3609375 48.21851563 -4.546875 47.30078125 C-6.70727376 31.56339374 -5.01913632 15.05740897 0 0 Z " fill="#8F5CC1" transform="translate(18,63)"/>
<path d="M0 0 C0.66 0.33 1.32 0.66 2 1 C-0.90299043 5.40824473 -3.91581363 9.71640781 -7 14 C-6.46375 13.38125 -5.9275 12.7625 -5.375 12.125 C-3 10 -3 10 0.125 9.0625 C3.22622847 8.28131392 3.22622847 8.28131392 4.375 5.375 C4.58125 4.59125 4.7875 3.8075 5 3 C5.66 3 6.32 3 7 3 C7 2.01 7 1.02 7 0 C7.66 0 8.32 0 9 0 C5.72405849 8.59190114 0.48374143 14.79240873 -5.9375 21.25 C-6.52241211 21.84031006 -7.10732422 22.43062012 -7.70996094 23.03881836 C-11.55305806 26.82043021 -15.54008243 29.96976227 -20 33 C-20.66 32.67 -21.32 32.34 -22 32 C-21.360625 31.7525 -20.72125 31.505 -20.0625 31.25 C-17.81258459 30.18437567 -17.81258459 30.18437567 -17.25 27.875 C-17.12625 26.946875 -17.12625 26.946875 -17 26 C-16.34 26 -15.68 26 -15 26 C-15 25.34 -15 24.68 -15 24 C-14.34 24 -13.68 24 -13 24 C-13 23.34 -13 22.68 -13 22 C-17.82442184 23.26946514 -17.82442184 23.26946514 -21 27 C-22.875 28.25 -22.875 28.25 -25 29 C-27.1328125 28.546875 -27.1328125 28.546875 -29 28 C-28.46632812 27.67128906 -27.93265625 27.34257812 -27.3828125 27.00390625 C-16.77083465 20.22913146 -5.99961705 11.29339681 0 0 Z " fill="#8B75DB" transform="translate(157,136)"/>
<path d="M0 0 C1.60294922 0.04060547 1.60294922 0.04060547 3.23828125 0.08203125 C4.04652344 0.11683594 4.85476562 0.15164062 5.6875 0.1875 C6.3475 2.1675 7.0075 4.1475 7.6875 6.1875 C8.3475 6.1875 9.0075 6.1875 9.6875 6.1875 C10.70616229 7.84282623 11.70560813 9.51010138 12.6875 11.1875 C13.3475 11.5175 14.0075 11.8475 14.6875 12.1875 C14.6875 13.8375 14.6875 15.4875 14.6875 17.1875 C10.87533819 17.1875 9.05821252 16.73620575 5.6875 15.1875 C4.6875 14.1875 4.6875 14.1875 4.375 10.75 C4.08324973 7.20071691 4.08324973 7.20071691 1.9375 5.75 C-0.71692865 5.08639284 -2.5895799 4.77906199 -5.3125 5.1875 C-8.22923348 7.3542163 -9.19964135 8.83481671 -10.3125 12.3125 C-11.3125 15.1875 -11.3125 15.1875 -13.4375 16.5625 C-14.05625 16.76875 -14.675 16.975 -15.3125 17.1875 C-15.73063284 11.12457386 -15.44524522 7.99042012 -11.3125 3.1875 C-7.43523883 0.33340497 -4.77579465 -0.15744378 0 0 Z " fill="#AD62F0" transform="translate(62.3125,46.8125)"/>
<path d="M0 0 C1.20527344 -0.01933594 2.41054687 -0.03867187 3.65234375 -0.05859375 C7.63813507 0.52124073 9.22000614 1.64613013 12.0625 4.4375 C14.18096092 7.43256543 15.0625 8.74400564 15.0625 12.4375 C14.4025 12.4375 13.7425 12.4375 13.0625 12.4375 C12.629375 11.32375 12.19625 10.21 11.75 9.0625 C10.36338881 5.26237666 10.36338881 5.26237666 7.0625 3.4375 C3.99526853 3.15678448 3.99526853 3.15678448 0.625 3.25 C-0.50808594 3.25644531 -1.64117187 3.26289062 -2.80859375 3.26953125 C-6.11705361 3.34767635 -6.11705361 3.34767635 -9.9375 4.4375 C-10.9275 8.0675 -11.9175 11.6975 -12.9375 15.4375 C-13.2675 14.7775 -13.5975 14.1175 -13.9375 13.4375 C-20.29053307 13.68860803 -24.95802086 14.08045575 -29.9375 18.4375 C-31.96293518 21.60097234 -32.04852163 23.74259079 -31.75 27.4375 C-31.63306802 32.10102255 -31.63306802 32.10102255 -34.3125 35.0625 C-36.9375 36.4375 -36.9375 36.4375 -38.9375 36.4375 C-41.35153744 40.94370321 -42.06721968 44.57880421 -42 49.6875 C-41.98646484 51.02554688 -41.98646484 51.02554688 -41.97265625 52.390625 C-41.96105469 53.06609375 -41.94945312 53.7415625 -41.9375 54.4375 C-41.2775 54.4375 -40.6175 54.4375 -39.9375 54.4375 C-39.6075 55.4275 -39.2775 56.4175 -38.9375 57.4375 C-40.34195835 59.7011564 -42.1342913 61.4583685 -43.9375 63.4375 C-44.2675 62.7775 -44.5975 62.1175 -44.9375 61.4375 C-43.5 58.8125 -43.5 58.8125 -41.9375 56.4375 C-42.4325 55.921875 -42.9275 55.40625 -43.4375 54.875 C-45.51540933 51.49839734 -45.33609053 49.35697356 -44.9375 45.4375 C-43.32525708 40.76199554 -41.39504811 36.99982229 -37.9375 33.4375 C-35.6875 32.625 -35.6875 32.625 -33.9375 32.4375 C-34.2675 31.7775 -34.5975 31.1175 -34.9375 30.4375 C-35.44671186 24.32695765 -35.02602244 21.29952669 -30.9375 16.4375 C-26.39745663 11.89745663 -21.33208017 10.4375 -14.9375 10.4375 C-14.07125 8.7978125 -14.07125 8.7978125 -13.1875 7.125 C-10.03859857 1.16457944 -6.64070869 0.0070872 0 0 Z " fill="#965CC2" transform="translate(79.9375,33.5625)"/>
<path d="M0 0 C-0.40073707 6.08963194 -2.29754555 9.64960944 -5.8125 14.5625 C-6.25142578 15.19607422 -6.69035156 15.82964844 -7.14257812 16.48242188 C-8.00642178 17.72876985 -8.87494701 18.97188842 -9.74853516 20.21142578 C-11.54448172 22.77816486 -13.27259852 25.38675161 -15 28 C-14.25838623 28.11069824 -13.51677246 28.22139648 -12.75268555 28.33544922 C-9.3964022 28.84087714 -6.04198797 29.35779628 -2.6875 29.875 C-0.93663086 30.13603516 -0.93663086 30.13603516 0.84960938 30.40234375 C1.96787109 30.57636719 3.08613281 30.75039063 4.23828125 30.9296875 C5.26993408 31.08679199 6.30158691 31.24389648 7.36450195 31.40576172 C10 32 10 32 13 34 C12.67 35.32 12.34 36.64 12 38 C8.83432793 38.65077173 5.66729923 39.2946984 2.5 39.9375 C1.1696875 40.21110352 1.1696875 40.21110352 -0.1875 40.49023438 C-5.44891455 41.55412335 -10.6644895 42.40785806 -16 43 C-15.01 44.65 -14.02 46.3 -13 48 C-16 47 -16 47 -17.6875 43.9375 C-18.120625 42.968125 -18.55375 41.99875 -19 41 C-18.505 40.505 -18.505 40.505 -18 40 C-16.88625 40.0309375 -15.7725 40.061875 -14.625 40.09375 C-9.202208 40.1615349 -4.22438014 38.83241433 1 37.5 C4.3 36.675 7.6 35.85 11 35 C-3.85 33.02 -3.85 33.02 -19 31 C-19.33 30.01 -19.66 29.02 -20 28 C-19.29875 27.525625 -18.5975 27.05125 -17.875 26.5625 C-14.74491885 23.77264506 -12.79490833 20.96342738 -10.55859375 17.44921875 C-8.50074611 14.21545818 -6.29716026 11.08670622 -4.1015625 7.9453125 C-2.75362599 5.93750553 -2.75362599 5.93750553 -3 3 C-4.65 4.32 -6.3 5.64 -8 7 C-8.66 6.67 -9.32 6.34 -10 6 C-8.90398831 4.99106869 -7.79786082 3.99311775 -6.6875 3 C-6.07261719 2.443125 -5.45773438 1.88625 -4.82421875 1.3125 C-3 0 -3 0 0 0 Z " fill="#9774D0" transform="translate(157,21)"/>
<path d="M0 0 C3.56400835 0.68153844 5.12009707 2.59521832 7.2265625 5.42578125 C8.51054526 9.27772954 8.59901997 13.02827938 8.7890625 17.05078125 C8.831521 17.91219727 8.87397949 18.77361328 8.91772461 19.66113281 C9.41284757 30.91048592 9.31689848 42.1685279 9.2265625 53.42578125 C6.24061826 54.91875337 3.51802626 54.54333353 0.2265625 54.42578125 C-0.4334375 54.09578125 -1.0934375 53.76578125 -1.7734375 53.42578125 C-1.7734375 52.76578125 -1.7734375 52.10578125 -1.7734375 51.42578125 C0.8665625 51.75578125 3.5065625 52.08578125 6.2265625 52.42578125 C6.33190642 41.23177374 6.31952436 30.04965625 5.8515625 18.86328125 C5.82070557 17.99034424 5.78984863 17.11740723 5.75805664 16.21801758 C5.49382512 10.07455138 5.49382512 10.07455138 3.2265625 4.42578125 C-0.68114737 2.8626973 -2.73378686 2.07923104 -6.7734375 3.42578125 C-8.19603231 8.72818008 -7.27429184 11.60270503 -4.7734375 16.42578125 C-4.1959375 17.12703125 -3.6184375 17.82828125 -3.0234375 18.55078125 C-1.7734375 20.42578125 -1.7734375 20.42578125 -1.8359375 23.05078125 C-2.7734375 25.42578125 -2.7734375 25.42578125 -4.8359375 26.73828125 C-5.795 27.07859375 -5.795 27.07859375 -6.7734375 27.42578125 C-8.0934375 26.10578125 -9.4134375 24.78578125 -10.7734375 23.42578125 C-8.7934375 23.75578125 -6.8134375 24.08578125 -4.7734375 24.42578125 C-4.4434375 22.77578125 -4.1134375 21.12578125 -3.7734375 19.42578125 C-4.7634375 19.09578125 -5.7534375 18.76578125 -6.7734375 18.42578125 C-9.59517414 14.66957339 -10.78777989 11.30066722 -10.7109375 6.61328125 C-8.90578208 0.47575282 -5.98240409 -0.18512325 0 0 Z " fill="#9970D2" transform="translate(80.7734375,39.57421875)"/>
<path d="M0 0 C2.66985348 1.29678598 3.00893722 2.42273269 4.1875 5.0625 C3.25612408 6.35858947 2.3171434 7.64921632 1.375 8.9375 C0.85292969 9.65679687 0.33085938 10.37609375 -0.20703125 11.1171875 C-1.8125 13.0625 -1.8125 13.0625 -4.8125 15.0625 C-5.8025 15.0625 -6.7925 15.0625 -7.8125 15.0625 C-5.45690148 18.10514809 -3.61547518 19.36476183 0.125 19.9375 C3.65460312 20.37256042 6.16553176 20.00376436 9.1875 18.0625 C10.06567917 15.22715019 10.60663717 12.83886405 11 9.9375 C11.12052734 9.18339844 11.24105469 8.42929688 11.36523438 7.65234375 C11.65956833 5.79215315 11.92621332 3.92761952 12.1875 2.0625 C12.5175 2.0625 12.8475 2.0625 13.1875 2.0625 C13.76574288 16.49715563 13.76574288 16.49715563 10.1875 21.0625 C6.37408097 23.64216581 2.64929915 23.15363488 -1.73046875 22.55078125 C-4.32123409 21.94319088 -5.86945669 20.85607844 -7.8125 19.0625 C-8.8025 18.7325 -9.7925 18.4025 -10.8125 18.0625 C-9.1625 20.3725 -7.5125 22.6825 -5.8125 25.0625 C-6.1425 25.7225 -6.4725 26.3825 -6.8125 27.0625 C-7.82143131 25.96648831 -8.81938225 24.86036082 -9.8125 23.75 C-10.369375 23.13511719 -10.92625 22.52023438 -11.5 21.88671875 C-12.8125 20.0625 -12.8125 20.0625 -12.8125 17.0625 C-15.1225 16.0725 -17.4325 15.0825 -19.8125 14.0625 C-16.79819716 13.05773239 -15.05966072 13.04515225 -11.9375 13.1875 C-7.6908453 13.21840724 -5.11566194 12.96527867 -1.8125 10.0625 C0.54850523 6.85173522 0.54850523 6.85173522 1.1875 3.0625 C-1.05848049 2.64119093 -1.05848049 2.64119093 -3.8125 3.0625 C-5.25909037 4.3483581 -6.70491977 5.63519188 -8.13671875 6.9375 C-11.34694435 9.09261649 -14.05842577 8.54689668 -17.8125 8.0625 C-20.3125 6.5625 -20.3125 6.5625 -21.8125 5.0625 C-21.4825 3.7425 -21.1525 2.4225 -20.8125 1.0625 C-20.4825 1.7225 -20.1525 2.3825 -19.8125 3.0625 C-17.83180314 5.43945757 -17.83180314 5.43945757 -14.0625 5.625 C-9.81228656 5.45343175 -7.64060407 3.71801971 -4.4140625 1.125 C-2.8125 0.0625 -2.8125 0.0625 0 0 Z " fill="#975EC4" transform="translate(73.8125,128.9375)"/>
<path d="M0 0 C-3.2187299 1.71356843 -6.50265571 2.910704 -9.9375 4.125 C-19.44778364 7.74898632 -27.93234081 12.58401421 -35 20 C-35.86238281 20.83015625 -36.72476563 21.6603125 -37.61328125 22.515625 C-53.88287963 38.99712843 -58.32635724 60.46664982 -59 83 C-59.33 83 -59.66 83 -60 83 C-60.46931919 58.07393631 -56.54841428 40.0600189 -39.11328125 21.32421875 C-36.94977898 19.00387898 -36.94977898 19.00387898 -34.9609375 16.3828125 C-29.92831459 10.2674739 -22.37253628 7.03579868 -15.375 3.625 C-14.65868408 3.26688232 -13.94236816 2.90876465 -13.2043457 2.53979492 C-8.54199922 0.33731039 -5.15287735 -0.39221376 0 0 Z " fill="#895BBB" transform="translate(80,19)"/>
<path d="M0 0 C2.97 0.495 2.97 0.495 6 1 C7 4 7 4 6.171875 5.69140625 C1.52408683 11.80758903 -3.89647578 17.32414471 -10 22 C-10.99 22 -11.98 22 -13 22 C-12.67742499 15.87107477 -9.63898791 10.80672284 -6 6 C-5.01 5.67 -4.02 5.34 -3 5 C-1.30117552 2.50240018 -1.30117552 2.50240018 0 0 Z " fill="#A07FF8" transform="translate(118,66)"/>
<path d="M0 0 C1.17272461 0.04157227 1.17272461 0.04157227 2.36914062 0.08398438 C7.98936993 0.41734802 11.4992979 1.82663693 16.1875 4.9375 C15.1875 6.9375 15.1875 6.9375 13.5625 7.6875 C10.83536805 7.97456652 8.9729706 7.25609435 6.40234375 6.41796875 C1.75522723 5.40986411 -3.08276288 5.79770481 -7.8125 5.9375 C-7.84988281 6.70835938 -7.88726562 7.47921875 -7.92578125 8.2734375 C-7.99152344 9.27632812 -8.05726562 10.27921875 -8.125 11.3125 C-8.18300781 12.31023437 -8.24101563 13.30796875 -8.30078125 14.3359375 C-8.46964844 15.19445312 -8.63851562 16.05296875 -8.8125 16.9375 C-9.8025 17.5975 -10.7925 18.2575 -11.8125 18.9375 C-12.08815727 16.33373726 -12.33377265 13.73294032 -12.5625 11.125 C-12.64371094 10.38701172 -12.72492188 9.64902344 -12.80859375 8.88867188 C-13.24390237 3.54404938 -13.24390237 3.54404938 -11.37890625 0.921875 C-7.52776153 -0.5552764 -4.07018331 -0.28104434 0 0 Z " fill="#AF6CF8" transform="translate(101.8125,98.0625)"/>
<path d="M0 0 C0.86367188 0.57878906 1.72734375 1.15757812 2.6171875 1.75390625 C23.53719231 15.68219299 42.9847548 22.2494332 68.23388672 17.28515625 C73.58826954 16.16425831 78.82024247 14.75563897 84 13 C84 13.66 84 14.32 84 15 C80 16.33333333 76 17.66666667 72 19 C70.95199219 19.3609375 69.90398437 19.721875 68.82421875 20.09375 C50.55110042 25.95732324 30.80468594 20.84855378 14.33203125 12.421875 C9.0922797 9.59006826 4.09088815 6.38534797 0 2 C0 1.34 0 0.68 0 0 Z " fill="#8669C3" transform="translate(44,152)"/>
<path d="M0 0 C-19.1820784 11.07564723 -40.01723541 12.61664667 -61.421875 7.9921875 C-74.6858006 4.3141994 -74.6858006 4.3141994 -79 0 C-73.79934084 0.53067951 -69.73412264 1.80827655 -65 4 C-49.63829012 10.69296363 -27.48766388 8.26899905 -12 3 C-9.50234131 1.9663692 -7.08826815 0.89930085 -4.69921875 -0.36328125 C-3 -1 -3 -1 0 0 Z " fill="#8263BD" transform="translate(135,170)"/>
<path d="M0 0 C0.66 0 1.32 0 2 0 C2 16.17 2 32.34 2 49 C8.93 49.495 8.93 49.495 16 50 C23.32058824 52.79338235 23.32058824 52.79338235 25.203125 56.13671875 C25.46609375 56.75160156 25.7290625 57.36648437 26 58 C25.34 58 24.68 58 24 58 C22.66666667 56.66666667 21.33333333 55.33333333 20 54 C17.40742331 53.13580777 15.65962293 52.82419068 12.98828125 52.68359375 C11.85229492 52.62075195 11.85229492 52.62075195 10.69335938 52.55664062 C9.90767578 52.51732422 9.12199219 52.47800781 8.3125 52.4375 C7.11657227 52.37272461 7.11657227 52.37272461 5.89648438 52.30664062 C3.93118553 52.20072632 1.96561504 52.09987449 0 52 C-0.9892063 49.0323811 -1.09308174 47.24542185 -1.02172852 44.16137695 C-1.00163223 43.1805867 -0.98153595 42.19979645 -0.96083069 41.18928528 C-0.93379562 40.13295395 -0.90676056 39.07662262 -0.87890625 37.98828125 C-0.85529526 36.90491989 -0.83168427 35.82155853 -0.80735779 34.70536804 C-0.73070914 31.2409458 -0.64668961 27.7767464 -0.5625 24.3125 C-0.50928054 21.96550574 -0.45654014 19.61850057 -0.40429688 17.27148438 C-0.27509233 11.51418466 -0.13983367 5.75705082 0 0 Z " fill="#9875D2" transform="translate(94,47)"/>
<path d="M0 0 C3.96 0.33 7.92 0.66 12 1 C11.67 1.99 11.34 2.98 11 4 C10.01 4.33 9.02 4.66 8 5 C7.88332125 8.22886009 7.81259454 11.45717445 7.75 14.6875 C7.71648438 15.59951172 7.68296875 16.51152344 7.6484375 17.45117188 C7.56563981 23.10886039 7.56563981 23.10886039 10.015625 28.14453125 C10.67046875 28.75683594 11.3253125 29.36914062 12 30 C6.78718286 27.95210755 4.34866346 23.8650886 2 19 C1.34 18.34 0.68 17.68 0 17 C0.66 17 1.32 17 2 17 C1.98839844 16.31292969 1.97679687 15.62585938 1.96484375 14.91796875 C1.95582031 14.01691406 1.94679687 13.11585937 1.9375 12.1875 C1.92589844 11.29417969 1.91429687 10.40085937 1.90234375 9.48046875 C2 7 2 7 3 4 C2.34 4 1.68 4 1 4 C0.67 2.68 0.34 1.36 0 0 Z " fill="#B255E9" transform="translate(42,110)"/>
<path d="M0 0 C1.65 0 3.3 0 5 0 C5 5.61 5 11.22 5 17 C4.01 16.34 3.02 15.68 2 15 C1.63671875 12.72265625 1.63671875 12.72265625 1.6875 10.0625 C1.69136719 9.18722656 1.69523437 8.31195313 1.69921875 7.41015625 C2 5 2 5 4 2 C2.02463255 2.34786708 2.02463255 2.34786708 0 3 C-2.10672598 7.21345195 -1.50665527 12.42178972 -1 17 C0.58333333 20.41666667 0.58333333 20.41666667 4 22 C7.67051641 22.67017856 11.27273898 22.92819637 15 23 C16.88487158 27.00253606 17.29741533 30.27774826 17.3125 34.6875 C17.32925781 35.82574219 17.34601563 36.96398437 17.36328125 38.13671875 C17.24339844 39.08160156 17.12351562 40.02648437 17 41 C16.01 41.66 15.02 42.32 14 43 C14 37.06 14 31.12 14 25 C12.494375 25.12375 10.98875 25.2475 9.4375 25.375 C5.48323005 25.36378221 3.13715594 24.95401204 0 22.5 C-3.3500135 19.1102944 -4.98264648 15.79824828 -5 11 C-4.14064592 6.73733095 -3.10803677 3.10803677 0 0 Z " fill="#9A70CC" transform="translate(73,75)"/>
<path d="M0 0 C2.5625 2.125 2.5625 2.125 5 5 C4.8125 8.3125 4.8125 8.3125 4 11 C5.32 11 6.64 11 8 11 C9.59765625 12.57421875 9.59765625 12.57421875 11.0625 14.6875 C11.82626953 15.77611328 11.82626953 15.77611328 12.60546875 16.88671875 C14.14430648 19.21868293 15.63000043 21.56444522 17 24 C16.01 24 15.02 24 14 24 C14 24.66 14 25.32 14 26 C14.639375 26.268125 15.27875 26.53625 15.9375 26.8125 C18 28 18 28 19 31 C17.68 30.34 16.36 29.68 15 29 C15 28.34 15 27.68 15 27 C14.01 26.67 13.02 26.34 12 26 C7.71764928 21.71764928 4.68883592 17.02954193 1.6875 11.8125 C1.33792236 11.20639893 0.98834473 10.60029785 0.62817383 9.97583008 C-1.01816311 7.03869364 -2.4284345 4.33827389 -3 1 C-2.01 1.33 -1.02 1.66 0 2 C0 1.34 0 0.68 0 0 Z " fill="#A65EE8" transform="translate(25,128)"/>
<path d="M0 0 C1.65 0 3.3 0 5 0 C7.86269001 6.84556306 10.00069144 13.19737252 8.0625 20.5625 C7.711875 21.366875 7.36125 22.17125 7 23 C6.34 23 5.68 23 5 23 C4.938125 23.556875 4.87625 24.11375 4.8125 24.6875 C3.6519231 27.99068042 1.59786554 29.71894733 -1 32 C-1.66 32 -2.32 32 -3 32 C-3.33 32.66 -3.66 33.32 -4 34 C-4.75 32.25 -4.75 32.25 -5 30 C-3.25 28.0625 -3.25 28.0625 -1 26 C1.52564843 22.33305388 1.52564843 22.33305388 2 18 C3.65 18 5.3 18 7 18 C6.67 15.03 6.34 12.06 6 9 C5.01 9.66 4.02 10.32 3 11 C2.30300448 9.54618103 1.61766134 8.08677047 0.9375 6.625 C0.55464844 5.81289062 0.17179688 5.00078125 -0.22265625 4.1640625 C-0.47917969 3.44992188 -0.73570312 2.73578125 -1 2 C-0.67 1.34 -0.34 0.68 0 0 Z " fill="#938AFA" transform="translate(144,98)"/>
<path d="M0 0 C2.59653964 1.91323973 3.73151664 3.19454991 4.75 6.25 C4.87375 7.11625 4.87375 7.11625 5 8 C5.99 8 6.98 8 8 8 C8 6.02 8 4.04 8 2 C8.66 1.67 9.32 1.34 10 1 C11.125 6.625 11.125 6.625 10 10 C9.01 10.33 8.02 10.66 7 11 C4.73340967 8.81435932 2.90212814 6.84812987 1.1875 4.1875 C0.465625 3.465625 -0.25625 2.74375 -1 2 C-4.66974518 1.9048346 -4.66974518 1.9048346 -8 3 C-9.4783226 5.95664519 -9.06032783 8.74229737 -9 12 C-4.70543612 14.30440013 -0.68520915 15.78184562 4 17 C3.75 18.875 3.75 18.875 3 21 C1.02 21.99 1.02 21.99 -1 23 C-0.67 27.62 -0.34 32.24 0 37 C-0.66 37 -1.32 37 -2 37 C-3.32286246 32.03926578 -3.08893197 27.08888488 -3 22 C-2.360625 21.71125 -1.72125 21.4225 -1.0625 21.125 C1.15206079 20.17176549 1.15206079 20.17176549 2 18 C0.700625 18.12375 0.700625 18.12375 -0.625 18.25 C-4.93004388 17.93110786 -6.77939854 16.85462402 -10 14 C-11.616217 10.29616938 -12.27727637 8.13431241 -11.3125 4.1875 C-8.4851206 -0.524799 -5.07920257 -0.5346529 0 0 Z " fill="#9359BB" transform="translate(52,93)"/>
<path d="M0 0 C5.46341463 2.92682927 5.46341463 2.92682927 7 6 C2.25 4.125 2.25 4.125 0 3 C-4.39444029 2.55105915 -8.0012735 2.55159218 -12.0625 4.375 C-13.0215625 5.179375 -13.0215625 5.179375 -14 6 C-14 6.66 -14 7.32 -14 8 C-13.01 7.835 -12.02 7.67 -11 7.5 C-0.67530373 6.10251586 -0.67530373 6.10251586 4.5 8.875 C5.7375 9.926875 5.7375 9.926875 7 11 C7 11.66 7 12.32 7 13 C5 12 3 11 1 10 C-4.04030201 9.48742691 -6.83566539 9.49760804 -11 12.5 C-11.99 13.325 -12.98 14.15 -14 15 C-15.32 14.34 -16.64 13.68 -18 13 C-17.76001446 6.88036865 -17.76001446 6.88036865 -15.66796875 4.45703125 C-10.45512403 0.13201896 -6.63909553 -0.83545665 0 0 Z " fill="#9F62CD" transform="translate(79,111)"/>
<path d="M0 0 C0.66 0 1.32 0 2 0 C3.49065102 7.45325512 4.03730066 13.54929378 0.34375 20.31640625 C-1.84503211 23.05874663 -4.77581997 23.8275709 -8 25 C-9.78344178 27.06954847 -9.78344178 27.06954847 -11 29 C-11.66 29 -12.32 29 -13 29 C-13 27.35 -13 25.7 -13 24 C-12.34 24 -11.68 24 -11 24 C-10.67 23.01 -10.34 22.02 -10 21 C-8.824375 20.319375 -8.824375 20.319375 -7.625 19.625 C-4.58064651 17.74040022 -3.43193298 16.26162513 -2 13 C-2.32380126 11.66431979 -2.65657551 10.33076989 -3 9 C-2.00692179 7.66150329 -1.00642948 6.32848691 0 5 C0.25124826 2.33238236 0.25124826 2.33238236 0 0 Z " fill="#8D90FA" transform="translate(133,128)"/>
<path d="M0 0 C1.18650146 -0.00833862 1.18650146 -0.00833862 2.39697266 -0.0168457 C8.05531762 0.05531762 8.05531762 0.05531762 10.3125 2.3125 C10.4375 4.9375 10.4375 4.9375 10.3125 7.3125 C6.33639214 10.02736934 2.17348023 9.53690753 -2.4375 9.4375 C-3.23027344 9.42847656 -4.02304688 9.41945313 -4.83984375 9.41015625 C-6.78919281 9.38667012 -8.73838575 9.35080137 -10.6875 9.3125 C-10.3575 8.6525 -10.0275 7.9925 -9.6875 7.3125 C-3.7475 7.3125 2.1925 7.3125 8.3125 7.3125 C7.8175 5.3325 7.8175 5.3325 7.3125 3.3125 C-7.47288652 2.51758675 -20.98715933 4.46045828 -34.6875 10.3125 C-34.6875 9.6525 -34.6875 8.9925 -34.6875 8.3125 C-23.22079984 3.08533758 -12.61689019 0.07639769 0 0 Z " fill="#8D61C4" transform="translate(94.6875,9.6875)"/>
<path d="M0 0 C0.33 0 0.66 0 1 0 C4.82342597 16.89707606 0.3312793 38.00369727 -8 53 C-9.28226945 49.4390479 -8.71916503 47.64888919 -7.1875 44.25 C-2.04927937 32.10190449 -0.68720625 19.1700863 -0.98583984 6.06640625 C-1.02157605 4.37797571 -1.01486944 2.68874322 -1 1 C-0.67 0.67 -0.34 0.34 0 0 Z " fill="#8669C2" transform="translate(175,82)"/>
<path d="M0 0 C1.72089844 0.11794922 1.72089844 0.11794922 3.4765625 0.23828125 C6.375 0.6875 6.375 0.6875 8.375 2.6875 C8.5 5.8125 8.5 5.8125 8.375 8.6875 C6.0625 9.3125 6.0625 9.3125 3.375 9.6875 C2.385 9.0275 1.395 8.3675 0.375 7.6875 C0.375 6.6975 0.375 5.7075 0.375 4.6875 C-1.935 4.6875 -4.245 4.6875 -6.625 4.6875 C-6.625 4.0275 -6.625 3.3675 -6.625 2.6875 C-7.945 2.0275 -9.265 1.3675 -10.625 0.6875 C-6.99366525 -0.50207518 -3.78451795 -0.28618815 0 0 Z " fill="#928EF1" transform="translate(130.625,106.3125)"/>
<path d="M0 0 C1.20527344 -0.01933594 2.41054687 -0.03867187 3.65234375 -0.05859375 C7.63813507 0.52124073 9.22000614 1.64613013 12.0625 4.4375 C14.18096092 7.43256543 15.0625 8.74400564 15.0625 12.4375 C14.4025 12.4375 13.7425 12.4375 13.0625 12.4375 C12.629375 11.32375 12.19625 10.21 11.75 9.0625 C10.36338881 5.26237666 10.36338881 5.26237666 7.0625 3.4375 C3.99526853 3.15678448 3.99526853 3.15678448 0.625 3.25 C-0.50808594 3.25644531 -1.64117187 3.26289062 -2.80859375 3.26953125 C-6.11705361 3.34767635 -6.11705361 3.34767635 -9.9375 4.4375 C-10.9275 8.0675 -11.9175 11.6975 -12.9375 15.4375 C-13.2675 14.7775 -13.5975 14.1175 -13.9375 13.4375 C-17.2375 13.4375 -20.5375 13.4375 -23.9375 13.4375 C-23.9375 12.7775 -23.9375 12.1175 -23.9375 11.4375 C-20.87902152 10.89377049 -18.04977195 10.4375 -14.9375 10.4375 C-14.36 9.344375 -13.7825 8.25125 -13.1875 7.125 C-10.03859857 1.16457944 -6.64070869 0.0070872 0 0 Z " fill="#9A70CE" transform="translate(79.9375,33.5625)"/>
<path d="M0 0 C1.051875 0.1546875 1.051875 0.1546875 2.125 0.3125 C3.125 3.3125 3.125 3.3125 2.26953125 5.06640625 C-2.4112363 11.4218179 -2.4112363 11.4218179 -5.875 12.3125 C-8.56569349 12.45247827 -11.17579652 12.40247345 -13.875 12.3125 C-13.875 11.9825 -13.875 11.6525 -13.875 11.3125 C-11.895 11.3125 -9.915 11.3125 -7.875 11.3125 C-7.875 10.3225 -7.875 9.3325 -7.875 8.3125 C-9.525 7.9825 -11.175 7.6525 -12.875 7.3125 C-12.33875 7.085625 -11.8025 6.85875 -11.25 6.625 C-8.63756091 5.29627334 -8.63756091 5.29627334 -5.9375 2.6875 C-2.875 0.3125 -2.875 0.3125 0 0 Z " fill="#AD5AE9" transform="translate(72.875,130.6875)"/>
<path d="M0 0 C0.66 0 1.32 0 2 0 C3.95021536 6.46008837 4.22262303 12.2718373 4 19 C4.12117187 18.26394531 4.24234375 17.52789062 4.3671875 16.76953125 C4.53476563 15.79371094 4.70234375 14.81789063 4.875 13.8125 C5.03742188 12.84957031 5.19984375 11.88664062 5.3671875 10.89453125 C5.98039517 8.08967396 6.85666343 5.62775253 8 3 C8.33 3 8.66 3 9 3 C8.53430878 10.8187104 7.77541538 18.36399015 6 26 C5.01 26 4.02 26 3 26 C1.81990204 23.63980407 1.70232315 21.83904283 1.46484375 19.2109375 C1.37783203 18.26992187 1.29082031 17.32890625 1.20117188 16.359375 C1.11416016 15.37453125 1.02714844 14.3896875 0.9375 13.375 C0.84662109 12.38242188 0.75574219 11.38984375 0.66210938 10.3671875 C0.43781564 7.91176132 0.21726893 5.45605611 0 3 C-0.99 3.66 -1.98 4.32 -3 5 C-1.125 1.125 -1.125 1.125 0 0 Z " fill="#897DC9" transform="translate(125,69)"/>
<path d="M0 0 C0.66 0 1.32 0 2 0 C2.2345392 5.74621044 2.26133811 11.40364884 -1.6875 15.9375 C-4.85905004 17.39469867 -7.55684723 17.19864343 -11 17 C-10.54625 17.33 -10.0925 17.66 -9.625 18 C-7.82848964 20.21108967 -7.6709277 21.31643131 -7.1875 24.0625 C-6.7974022 26.16990802 -6.7974022 26.16990802 -6 28 C-3.10970384 29.71455695 -3.10970384 29.71455695 0 30 C0.66 29.67 1.32 29.34 2 29 C1.67 29.99 1.34 30.98 1 32 C-1.1875 32.3125 -1.1875 32.3125 -4 32 C-7.89662026 28.9004157 -9.23726782 26.83063713 -10 22 C-10.53625 21.484375 -11.0725 20.96875 -11.625 20.4375 C-12.07875 19.963125 -12.5325 19.48875 -13 19 C-12.6875 16.8125 -12.6875 16.8125 -12 15 C-10.01432292 14.86979167 -8.02864583 14.73958333 -6.04296875 14.609375 C-3.19050671 13.75854502 -2.44289514 12.5690572 -1 10 C-0.43015552 7.42126391 -0.43015552 7.42126391 -0.3125 4.75 C-0.24675781 3.85796875 -0.18101563 2.9659375 -0.11328125 2.046875 C-0.07589844 1.37140625 -0.03851563 0.6959375 0 0 Z " fill="#8C8CD5" transform="translate(115,110)"/>
<path d="M0 0 C0.98484375 0.11988281 1.9696875 0.23976563 2.984375 0.36328125 C3.73203125 0.47027344 4.4796875 0.57726562 5.25 0.6875 C5.91 2.6675 6.57 4.6475 7.25 6.6875 C5.93 8.0075 4.61 9.3275 3.25 10.6875 C1.25 8.875 1.25 8.875 -0.75 6.6875 C-0.75 5.6975 -0.75 4.7075 -0.75 3.6875 C-3.72 3.3575 -6.69 3.0275 -9.75 2.6875 C-6.40914528 -0.40676782 -4.45291069 -0.58311926 0 0 Z " fill="#AB57E0" transform="translate(55.75,68.3125)"/>
<path d="M0 0 C-15.86404139 9.15982734 -30.06897732 10.85092724 -48 9 C-48 8.67 -48 8.34 -48 8 C-46.741875 7.97421875 -45.48375 7.9484375 -44.1875 7.921875 C-30.37345033 7.51370489 -17.12510617 6.20364157 -4.69921875 -0.36328125 C-3 -1 -3 -1 0 0 Z " fill="#8670CF" transform="translate(135,170)"/>
<path d="M0 0 C0 0.66 0 1.32 0 2 C-2.01822917 1.96744792 -4.03645833 1.93489583 -6.0546875 1.90234375 C-8.08185404 1.87350758 -8.08185404 1.87350758 -10 3 C-10.50516999 5.08975009 -10.50516999 5.08975009 -10.6875 7.5 C-10.77386719 8.3146875 -10.86023437 9.129375 -10.94921875 9.96875 C-10.96597656 10.6390625 -10.98273437 11.309375 -11 12 C-9.32811639 13.67188361 -7.03968578 13.44389228 -4.75 13.75 C0.51007371 14.63921922 2.78835092 15.79163224 6 20 C5.67 20.66 5.34 21.32 5 22 C4.19755859 21.05833984 4.19755859 21.05833984 3.37890625 20.09765625 C0.55579653 17.60831319 -1.39913089 17.15927904 -5.0625 16.4375 C-11.73254795 15.11008625 -11.73254795 15.11008625 -14 12 C-14.62042083 8.0115804 -14.13996882 6.25580508 -12.1875 2.6875 C-8.44543024 -1.90989999 -5.45805824 -0.92684008 0 0 Z " fill="#9457C0" transform="translate(55,72)"/>
<path d="M0 0 C0.33 0 0.66 0 1 0 C1.77448233 9.33681477 0.76042096 17.31036722 -1.8125 26.3125 C-2.20332764 27.70021606 -2.20332764 27.70021606 -2.60205078 29.1159668 C-4.60233173 35.73488782 -4.60233173 35.73488782 -8 38 C-6.85041079 32.53945123 -5.50355522 27.1871489 -4 21.8125 C-2.03866055 14.5818904 -0.87230453 7.44902156 0 0 Z " fill="#8668C1" transform="translate(169,91)"/>
<path d="M0 0 C0.99 0.33 1.98 0.66 3 1 C2.44570312 1.74765625 1.89140625 2.4953125 1.3203125 3.265625 C0.59585938 4.25046875 -0.12859375 5.2353125 -0.875 6.25 C-1.59429687 7.22453125 -2.31359375 8.1990625 -3.0546875 9.203125 C-4.60982225 11.43902154 -5.88204223 13.52872493 -7 16 C-7.33 15.01 -7.66 14.02 -8 13 C-9.98 13.99 -11.96 14.98 -14 16 C-12.34136495 11.67495164 -9.128959 8.90581175 -5.875 5.75 C-5.31167969 5.19570313 -4.74835938 4.64140625 -4.16796875 4.0703125 C-2.78313972 2.70895515 -1.39216796 1.35385141 0 0 Z " fill="#A175E8" transform="translate(146,28)"/>
<path d="M0 0 C0.66 0.33 1.32 0.66 2 1 C-0.97 5.95 -0.97 5.95 -4 11 C0.09529452 7.77340432 4.05692685 4.40899696 8 1 C8.66 1.33 9.32 1.66 10 2 C0.73628469 11.47532302 0.73628469 11.47532302 -4 15 C-4.99 15 -5.98 15 -7 15 C-6.68383092 8.83470299 -3.50784939 4.82731567 0 0 Z " fill="#9382D3" transform="translate(112,73)"/>
<path d="M0 0 C-0.74765625 0.53109375 -1.4953125 1.0621875 -2.265625 1.609375 C-3.25046875 2.31578125 -4.2353125 3.0221875 -5.25 3.75 C-6.22453125 4.44609375 -7.1990625 5.1421875 -8.203125 5.859375 C-10.69233296 7.76452299 -12.84971939 9.72684621 -15 12 C-14.835 11.4225 -14.67 10.845 -14.5 10.25 C-13.85537969 7.73335631 -13.85537969 7.73335631 -14 4 C-9.49547581 0.33352682 -5.68128979 -1.89376326 0 0 Z " fill="#A45FEB" transform="translate(57,27)"/>
<path d="M0 0 C0.33 0 0.66 0 1 0 C1.57824288 14.43465563 1.57824288 14.43465563 -2 19 C-5.84503719 21.60105457 -9.58840942 21.02064512 -14.01171875 20.58203125 C-16 20 -16 20 -18 17 C-17.33613281 17.09539062 -16.67226562 17.19078125 -15.98828125 17.2890625 C-15.10527344 17.39992187 -14.22226563 17.51078125 -13.3125 17.625 C-12.00732422 17.79902344 -12.00732422 17.79902344 -10.67578125 17.9765625 C-7.4064626 18.00519887 -5.73885902 17.83841222 -3 16 C-2.12182083 13.16465019 -1.58086283 10.77636405 -1.1875 7.875 C-1.06697266 7.12089844 -0.94644531 6.36679688 -0.82226562 5.58984375 C-0.52793167 3.72965315 -0.26128668 1.86511952 0 0 Z " fill="#9267CA" transform="translate(86,131)"/>
<path d="M0 0 C0.33 0 0.66 0 1 0 C1.03738281 0.59167969 1.07476562 1.18335937 1.11328125 1.79296875 C1.66087097 8.39384073 1.66087097 8.39384073 5 14 C8.06680799 15.82629794 8.06680799 15.82629794 11 17 C10.67 21.29 10.34 25.58 10 30 C9.34 30 8.68 30 8 30 C8.08121094 29.27554688 8.16242187 28.55109375 8.24609375 27.8046875 C8.78300756 22.06214184 8.78300756 22.06214184 6.4765625 17.0390625 C4.6024539 15.48385702 4.6024539 15.48385702 2.62890625 14.21875 C1 13 1 13 0 10 C-0.06802967 8.27204648 -0.08495645 6.54164635 -0.0625 4.8125 C-0.05347656 3.91144531 -0.04445312 3.01039062 -0.03515625 2.08203125 C-0.02355469 1.39496094 -0.01195312 0.70789063 0 0 Z " fill="#9958C1" transform="translate(34,97)"/>
<path d="M0 0 C0.33 0 0.66 0 1 0 C1.38133299 1.9914056 1.71325582 3.99279077 2 6 C1.67 6.33 1.34 6.66 1 7 C0.60333773 9.18019479 0.25684763 11.3696463 -0.0625 13.5625 C-0.32740234 15.35880859 -0.32740234 15.35880859 -0.59765625 17.19140625 C-0.73042969 18.11824219 -0.86320313 19.04507813 -1 20 C-3 18 -3 18 -3.1953125 14.0859375 C-3.18200376 12.51550649 -3.15813602 10.94513779 -3.125 9.375 C-3.11597656 8.57320312 -3.10695313 7.77140625 -3.09765625 6.9453125 C-3.07406223 4.96341477 -3.03819065 2.98167019 -3 1 C-2.01 1.495 -2.01 1.495 -1 2 C-0.67 1.34 -0.34 0.68 0 0 Z " fill="#A184FC" transform="translate(131,70)"/>
<path d="M0 0 C1.125 3.75 1.125 3.75 0 6 C-1.57974609 6.39832031 -1.57974609 6.39832031 -3.19140625 6.8046875 C-7.56154197 8.17623779 -9.66016787 9.96905054 -12.9375 13.125 C-13.43056641 13.59292969 -13.92363281 14.06085937 -14.43164062 14.54296875 C-15.63144539 15.68453057 -16.81725031 16.84077697 -18 18 C-18.66 17.67 -19.32 17.34 -20 17 C-13.86826213 10.4594796 -7.39025061 5.06957378 0 0 Z " fill="#8B5FBE" transform="translate(54,21)"/>
<path d="M0 0 C3.0598298 0.81179158 4.71657229 1.73725626 7.0625 3.8125 C6.0625 5.8125 6.0625 5.8125 4.4375 6.5625 C0.94280921 6.93036219 -1.68028294 6.04163851 -4.9375 4.8125 C-5.2675 3.8225 -5.5975 2.8325 -5.9375 1.8125 C-2.9375 -0.1875 -2.9375 -0.1875 0 0 Z " fill="#9D83F8" transform="translate(110.9375,99.1875)"/>
<path d="M0 0 C3.3 0 6.6 0 10 0 C11.88487158 4.00253606 12.29741533 7.27774826 12.3125 11.6875 C12.32925781 12.82574219 12.34601563 13.96398437 12.36328125 15.13671875 C12.24339844 16.08160156 12.12351562 17.02648437 12 18 C11.01 18.66 10.02 19.32 9 20 C9 13.73 9 7.46 9 1 C6.03 1 3.06 1 0 1 C0 0.67 0 0.34 0 0 Z " fill="#A069D9" transform="translate(78,98)"/>
<path d="M0 0 C0 0.33 0 0.66 0 1 C4.95 1.33 9.9 1.66 15 2 C15 2.33 15 2.66 15 3 C13.90300781 3.04898437 12.80601563 3.09796875 11.67578125 3.1484375 C10.22133075 3.22350591 8.76690484 3.29905197 7.3125 3.375 C6.2306543 3.42140625 6.2306543 3.42140625 5.12695312 3.46875 C0.97293805 3.69636726 -2.13678733 4.35245342 -6 6 C-8.3125 5.125 -8.3125 5.125 -10 4 C-8.35 4 -6.7 4 -5 4 C-5 3.34 -5 2.68 -5 2 C-5.99 2.33 -6.98 2.66 -8 3 C-8 2.34 -8 1.68 -8 1 C-5.29120665 -0.35439668 -2.99066732 -0.06501451 0 0 Z " fill="#9756D5" transform="translate(86,14)"/>
<path d="M0 0 C0.598125 0.226875 1.19625 0.45375 1.8125 0.6875 C2.1425 2.0075 2.4725 3.3275 2.8125 4.6875 C2.1525 4.6875 1.4925 4.6875 0.8125 4.6875 C0.4825 4.0275 0.1525 3.3675 -0.1875 2.6875 C-0.8475 2.6875 -1.5075 2.6875 -2.1875 2.6875 C-2.1153125 3.35394531 -2.043125 4.02039063 -1.96875 4.70703125 C-1.29551736 11.39260535 -1.07056989 17.9705148 -1.1875 24.6875 C-1.5175 24.6875 -1.8475 24.6875 -2.1875 24.6875 C-2.32027344 23.68589844 -2.45304688 22.68429688 -2.58984375 21.65234375 C-2.76821127 20.30989346 -2.9465977 18.96744567 -3.125 17.625 C-3.21201172 16.96822266 -3.29902344 16.31144531 -3.38867188 15.63476562 C-3.51918945 14.6534668 -3.51918945 14.6534668 -3.65234375 13.65234375 C-3.78129028 12.66790283 -3.78129028 12.66790283 -3.9128418 11.66357422 C-4.18443272 9.70956802 -4.50602987 7.76272497 -4.828125 5.81640625 C-5.1875 2.6875 -5.1875 2.6875 -4 0.6875 C-2.1875 -0.3125 -2.1875 -0.3125 0 0 Z " fill="#8C6BC0" transform="translate(170.1875,66.3125)"/>
<path d="M0 0 C3.50182013 1.29697042 5.10262224 3.32203276 7.36328125 6.203125 C10.78335497 9.95785987 14.97691751 12.9221466 19 16 C18.67 16.66 18.34 17.32 18 18 C3.78628231 6.66500994 3.78628231 6.66500994 0 2 C0 1.34 0 0.68 0 0 Z " fill="#8E64C2" transform="translate(33,150)"/>
<path d="M0 0 C11.18951613 13.875 11.18951613 13.875 14 19 C10.38502261 17.52841629 8.59408489 15.58537669 6.25 12.5 C5.32960938 11.30890625 5.32960938 11.30890625 4.390625 10.09375 C3 8 3 8 3 6 C1.68 6 0.36 6 -1 6 C-0.67 4.02 -0.34 2.04 0 0 Z " fill="#935FC6" transform="translate(30,133)"/>
<path d="M0 0 C0.33 0.99 0.66 1.98 1 3 C1.66 3.33 2.32 3.66 3 4 C2.525625 4.495 2.05125 4.99 1.5625 5.5 C-0.62167907 8.99468651 -0.65913911 11.90966936 -1 16 C-3 14 -3 14 -3.0625 11.625 C-3.041875 10.75875 -3.02125 9.8925 -3 9 C-3.2475 8.34 -3.495 7.68 -3.75 7 C-4 5 -4 5 -2.0625 2.25 C-1.381875 1.5075 -0.70125 0.765 0 0 Z " fill="#B156ED" transform="translate(41,90)"/>
<path d="M0 0 C0.66 0.33 1.32 0.66 2 1 C1.5875 1.49886719 1.175 1.99773438 0.75 2.51171875 C-4.46959212 9.00125628 -8.74807212 15.85455237 -13 23 C-13.33 22.34 -13.66 21.68 -14 21 C-12.89075061 18.68230005 -11.73591907 16.52129829 -10.4375 14.3125 C-10.07269531 13.6819873 -9.70789063 13.05147461 -9.33203125 12.40185547 C-6.62807475 7.82711088 -3.67403838 3.8577403 0 0 Z " fill="#8B5FBE" transform="translate(33,40)"/>
<path d="M0 0 C0.763125 0.20625 1.52625 0.4125 2.3125 0.625 C1.2841847 3.70994591 0.83987004 4.70768479 -1.6875 6.625 C-4.875 7.3125 -4.875 7.3125 -7.6875 7.625 C-5.32271401 -0.74270428 -5.32271401 -0.74270428 0 0 Z " fill="#906CDD" transform="translate(165.6875,127.375)"/>
<path d="M0 0 C3.2209825 3.30224582 6 6.27532533 6 11 C5.34 11 4.68 11 4 11 C3.566875 9.88625 3.13375 8.7725 2.6875 7.625 C1.30088881 3.82487666 1.30088881 3.82487666 -2 2 C-4.96842658 1.54084493 -4.96842658 1.54084493 -8.1875 1.375 C-9.27417969 1.30023438 -10.36085938 1.22546875 -11.48046875 1.1484375 C-12.31191406 1.09945312 -13.14335938 1.05046875 -14 1 C-14 0.67 -14 0.34 -14 0 C-4.14 -1.53 -4.14 -1.53 0 0 Z " fill="#9E77D7" transform="translate(89,35)"/>
<path d="M0 0 C3.96 0 7.92 0 12 0 C11.33333333 1.33333333 10.66666667 2.66666667 10 4 C6.7 4 3.4 4 0 4 C0.66 3.67 1.32 3.34 2 3 C2 2.34 2 1.68 2 1 C1.34 0.67 0.68 0.34 0 0 Z " fill="#AD7BFD" transform="translate(96,99)"/>
<path d="M0 0 C1.32 0 2.64 0 4 0 C4.33 0.99 4.66 1.98 5 3 C3 5 3 5 0.125 5.9375 C-2.82443346 6.94030738 -4.64685679 8.00887882 -7 10 C-5.31559374 6.01867611 -2.96674659 3.10802023 0 0 Z " fill="#9574F1" transform="translate(156,141)"/>
<path d="M0 0 C1.83984375 0.51953125 1.83984375 0.51953125 3.83984375 2.51953125 C3.96484375 5.14453125 3.96484375 5.14453125 3.83984375 7.51953125 C3.11796875 6.69453125 2.39609375 5.86953125 1.65234375 5.01953125 C-0.88132622 2.35368327 -0.88132622 2.35368327 -3.78515625 1.95703125 C-6.85076827 2.68309725 -7.47308274 3.94875257 -9.16015625 6.51953125 C-9.82015625 6.51953125 -10.48015625 6.51953125 -11.16015625 6.51953125 C-8.40964459 0.38377448 -6.62624342 -0.92545299 0 0 Z " fill="#9863C8" transform="translate(63.16015625,51.48046875)"/>
<path d="M0 0 C0.99 0.33 1.98 0.66 3 1 C3.33 4.63 3.66 8.26 4 12 C3.01 12.495 3.01 12.495 2 13 C1.34 12.01 0.68 11.02 0 10 C-0.99 9.34 -1.98 8.68 -3 8 C-2.34 8 -1.68 8 -1 8 C-0.67 5.36 -0.34 2.72 0 0 Z " fill="#AE4DE5" transform="translate(45,119)"/>
<path d="M0 0 C4.95 0 9.9 0 15 0 C13.51799926 3.70500184 12.091496 6.67262 10 10 C9.34 9.67 8.68 9.34 8 9 C8.99 6.69 9.98 4.38 11 2 C7.37 1.67 3.74 1.34 0 1 C0 0.67 0 0.34 0 0 Z " fill="#9B79DE" transform="translate(105,62)"/>
<path d="M0 0 C0.99 0.33 1.98 0.66 3 1 C4.23076923 6.41538462 4.23076923 6.41538462 3.0625 9.375 C2.711875 9.91125 2.36125 10.4475 2 11 C-0.30694043 7.53958935 -0.62056512 5.09789669 -1 1 C-0.67 0.67 -0.34 0.34 0 0 Z " fill="#9E64EB" transform="translate(168,68)"/>
<path d="M0 0 C2.475 0.99 2.475 0.99 5 2 C5 3.65 5 5.3 5 7 C3.68 7 2.36 7 1 7 C-1 4 -1 4 -0.625 1.8125 C-0.41875 1.214375 -0.2125 0.61625 0 0 Z " fill="#AF6DFB" transform="translate(72,57)"/>
<path d="M0 0 C0.495 0.33 0.99 0.66 1.5 1 C1.5 1.33 1.5 1.66 1.5 2 C-3.12 2 -7.74 2 -12.5 2 C-12.83 1.34 -13.16 0.68 -13.5 0 C-8.97258828 -1.50913724 -4.43573202 -1.77429281 0 0 Z " fill="#8883D8" transform="translate(133.5,105)"/>
<path d="M0 0 C0.66 0 1.32 0 2 0 C4.125 7.625 4.125 7.625 3 11 C2.34 11 1.68 11 1 11 C0.67 8.36 0.34 5.72 0 3 C-0.99 3.66 -1.98 4.32 -3 5 C-1.125 1.125 -1.125 1.125 0 0 Z " fill="#9177D5" transform="translate(125,69)"/>
<path d="M0 0 C4.92307692 4.30769231 4.92307692 4.30769231 5.3125 7.8125 C5.209375 8.534375 5.10625 9.25625 5 10 C1.83884224 8.63016497 1.0072908 8.0109362 -1 5 C-0.34 4.67 0.32 4.34 1 4 C0.67 2.68 0.34 1.36 0 0 Z " fill="#8F80CC" transform="translate(152,80)"/>
<path d="M0 0 C0.66 0 1.32 0 2 0 C0.6744419 3.62276315 -0.94346955 6.63505348 -3.125 9.8125 C-3.66382813 10.60269531 -4.20265625 11.39289063 -4.7578125 12.20703125 C-5.37269531 13.09455078 -5.37269531 13.09455078 -6 14 C-6.33 13.01 -6.66 12.02 -7 11 C-6.54625 10.608125 -6.0925 10.21625 -5.625 9.8125 C-3.72357081 7.69167513 -2.93795972 5.66957765 -2 3 C-1.34 3 -0.68 3 0 3 C0 2.01 0 1.02 0 0 Z " fill="#8872C8" transform="translate(164,136)"/>
<path d="M0 0 C3 0 3 0 5.6875 2.3125 C8 5 8 5 8 8 C5.69 6.35 3.38 4.7 1 3 C0.34 3.99 -0.32 4.98 -1 6 C-1.042721 4.33388095 -1.04063832 2.66617115 -1 1 C-0.67 0.67 -0.34 0.34 0 0 Z " fill="#967BDC" transform="translate(133,69)"/>
<path d="M0 0 C1 3 1 3 -0.1875 6.4375 C-1.84375447 9.69289671 -3.26548253 11.64265735 -6 14 C-4.16508812 9.25981099 -2.08058541 4.63586749 0 0 Z " fill="#8B8ED5" transform="translate(138,136)"/>
<path d="M0 0 C0.33 0 0.66 0 1 0 C1 5.28 1 10.56 1 16 C0.67 16 0.34 16 0 16 C0 13.03 0 10.06 0 7 C-0.66 7 -1.32 7 -2 7 C-1.125 1.125 -1.125 1.125 0 0 Z " fill="#A15BD6" transform="translate(87,124)"/>
<path d="M0 0 C0.66 0.33 1.32 0.66 2 1 C2.625 4.0625 2.625 4.0625 3 7 C2.01 7 1.02 7 0 7 C-0.33 7.33 -0.66 7.66 -1 8 C-1.99 8 -2.98 8 -4 8 C-3.67 6.68 -3.34 5.36 -3 4 C-2.34 4 -1.68 4 -1 4 C-0.67 2.68 -0.34 1.36 0 0 Z " fill="#A354D7" transform="translate(52,58)"/>
<path d="M0 0 C0.33 0.99 0.66 1.98 1 3 C-1.40545638 4.20272819 -2.94996953 4.10071472 -5.625 4.0625 C-6.85089844 4.04896484 -6.85089844 4.04896484 -8.1015625 4.03515625 C-9.04128906 4.01775391 -9.04128906 4.01775391 -10 4 C-10.33 3.01 -10.66 2.02 -11 1 C-10.06027344 1.01740234 -10.06027344 1.01740234 -9.1015625 1.03515625 C-7.87566406 1.04869141 -7.87566406 1.04869141 -6.625 1.0625 C-5.40683594 1.07990234 -5.40683594 1.07990234 -4.1640625 1.09765625 C-1.95062858 1.14466334 -1.95062858 1.14466334 0 0 Z " fill="#AB69F1" transform="translate(86,36)"/>
<path d="M0 0 C1.125 3.75 1.125 3.75 0 6 C-3.0625 6.625 -3.0625 6.625 -6 7 C-6 6.01 -6 5.02 -6 4 C-3 1.8125 -3 1.8125 0 0 Z " fill="#9960D1" transform="translate(54,21)"/>
<path d="M0 0 C1.09658936 3.28976808 0.79953138 4.71303767 0 8 C0.66 8 1.32 8 2 8 C1.67 10.31 1.34 12.62 1 15 C-1 13 -1 13 -1.23046875 10.46875 C-1.21628906 9.4890625 -1.20210938 8.509375 -1.1875 7.5 C-1.18105469 6.5203125 -1.17460938 5.540625 -1.16796875 4.53125 C-1 2 -1 2 0 0 Z " fill="#9987ED" transform="translate(129,75)"/>
<path d="M0 0 C-0.33 0.99 -0.66 1.98 -1 3 C-1 2.34 -1 1.68 -1 1 C-4.3 1 -7.6 1 -11 1 C-11 0.34 -11 -0.32 -11 -1 C-6.99799622 -2.60080151 -3.95443764 -1.29279692 0 0 Z " fill="#9C67D8" transform="translate(67,46)"/>
<path d="M0 0 C0.66 1.32 1.32 2.64 2 4 C0.02 6.97 0.02 6.97 -2 10 C-3.32 9.67 -4.64 9.34 -6 9 C-4.7934375 7.88625 -4.7934375 7.88625 -3.5625 6.75 C-1.23011409 4.24695171 -0.36465606 3.2819045 0 0 Z " fill="#8E8CDB" transform="translate(145,115)"/>
<path d="M0 0 C0.99 0.33 1.98 0.66 3 1 C3 2.32 3 3.64 3 5 C1.68 5.33 0.36 5.66 -1 6 C-1.66 4.68 -2.32 3.36 -3 2 C-2.01 1.34 -1.02 0.68 0 0 Z " fill="#9C98F0" transform="translate(102,148)"/>
<path d="M0 0 C0.66 0.99 1.32 1.98 2 3 C1.01 3.33 0.02 3.66 -1 4 C-1.33 4.66 -1.66 5.32 -2 6 C-2.66 6 -3.32 6 -4 6 C-4 4.68 -4 3.36 -4 2 C-2.68 1.34 -1.36 0.68 0 0 Z " fill="#AA53DF" transform="translate(59,18)"/>
<path d="M0 0 C3.78611227 0.54087318 5.55400767 2.11722332 8 5 C8 5.66 8 6.32 8 7 C4.2047869 5.50902342 2.38957269 3.24299151 0 0 Z " fill="#9A85D8" transform="translate(142,77)"/>
</svg>
